G04 #@! TF.GenerationSoftware,KiCad,Pcbnew,9.0.7*
G04 #@! TF.CreationDate,2026-03-10T17:18:34+08:00*
G04 #@! TF.ProjectId,NX_146_SPI_MKB_Base,4e585f31-3436-45f5-9350-495f4d4b425f,rev?*
G04 #@! TF.SameCoordinates,Original*
G04 #@! TF.FileFunction,Copper,L1,Top*
G04 #@! TF.FilePolarity,Positive*
%FSLAX46Y46*%
G04 Gerber Fmt 4.6, Leading zero omitted, Abs format (unit mm)*
G04 Created by KiCad (PCBNEW 9.0.7) date 2026-03-10 17:18:34*
%MOMM*%
%LPD*%
G01*
G04 APERTURE LIST*
G04 Aperture macros list*
%AMRoundRect*
0 Rectangle with rounded corners*
0 $1 Rounding radius*
0 $2 $3 $4 $5 $6 $7 $8 $9 X,Y pos of 4 corners*
0 Add a 4 corners polygon primitive as box body*
4,1,4,$2,$3,$4,$5,$6,$7,$8,$9,$2,$3,0*
0 Add four circle primitives for the rounded corners*
1,1,$1+$1,$2,$3*
1,1,$1+$1,$4,$5*
1,1,$1+$1,$6,$7*
1,1,$1+$1,$8,$9*
0 Add four rect primitives between the rounded corners*
20,1,$1+$1,$2,$3,$4,$5,0*
20,1,$1+$1,$4,$5,$6,$7,0*
20,1,$1+$1,$6,$7,$8,$9,0*
20,1,$1+$1,$8,$9,$2,$3,0*%
G04 Aperture macros list end*
G04 #@! TA.AperFunction,SMDPad,CuDef*
%ADD10RoundRect,0.140000X0.140000X0.170000X-0.140000X0.170000X-0.140000X-0.170000X0.140000X-0.170000X0*%
G04 #@! TD*
G04 #@! TA.AperFunction,SMDPad,CuDef*
%ADD11RoundRect,0.250000X0.312500X0.625000X-0.312500X0.625000X-0.312500X-0.625000X0.312500X-0.625000X0*%
G04 #@! TD*
G04 #@! TA.AperFunction,SMDPad,CuDef*
%ADD12RoundRect,0.135000X-0.135000X-0.185000X0.135000X-0.185000X0.135000X0.185000X-0.135000X0.185000X0*%
G04 #@! TD*
G04 #@! TA.AperFunction,ComponentPad*
%ADD13R,1.700000X1.700000*%
G04 #@! TD*
G04 #@! TA.AperFunction,ComponentPad*
%ADD14C,1.700000*%
G04 #@! TD*
G04 #@! TA.AperFunction,SMDPad,CuDef*
%ADD15RoundRect,0.150000X0.587500X0.150000X-0.587500X0.150000X-0.587500X-0.150000X0.587500X-0.150000X0*%
G04 #@! TD*
G04 #@! TA.AperFunction,SMDPad,CuDef*
%ADD16RoundRect,0.135000X0.135000X0.185000X-0.135000X0.185000X-0.135000X-0.185000X0.135000X-0.185000X0*%
G04 #@! TD*
G04 #@! TA.AperFunction,SMDPad,CuDef*
%ADD17R,0.670000X0.290000*%
G04 #@! TD*
G04 #@! TA.AperFunction,SMDPad,CuDef*
%ADD18R,0.490000X0.290000*%
G04 #@! TD*
G04 #@! TA.AperFunction,SMDPad,CuDef*
%ADD19R,0.990000X0.350000*%
G04 #@! TD*
G04 #@! TA.AperFunction,ViaPad*
%ADD20C,0.600000*%
G04 #@! TD*
G04 #@! TA.AperFunction,Conductor*
%ADD21C,0.200000*%
G04 #@! TD*
G04 #@! TA.AperFunction,Conductor*
%ADD22C,0.300000*%
G04 #@! TD*
G04 #@! TA.AperFunction,Conductor*
%ADD23C,0.500000*%
G04 #@! TD*
G04 #@! TA.AperFunction,Conductor*
%ADD24C,1.000000*%
G04 #@! TD*
G04 APERTURE END LIST*
D10*
G04 #@! TO.P,C2,1*
G04 #@! TO.N,/VDD_3V3_LCD*
X168210000Y-76600000D03*
G04 #@! TO.P,C2,2*
G04 #@! TO.N,Earth*
X167250000Y-76600000D03*
G04 #@! TD*
D11*
G04 #@! TO.P,R1,1*
G04 #@! TO.N,/LCD_LED_A*
X161492500Y-66060000D03*
G04 #@! TO.P,R1,2*
G04 #@! TO.N,Net-(J3-Pin_7)*
X158567500Y-66060000D03*
G04 #@! TD*
D12*
G04 #@! TO.P,R2,1*
G04 #@! TO.N,Net-(Q1-G)*
X161410000Y-50820000D03*
G04 #@! TO.P,R2,2*
G04 #@! TO.N,Earth*
X162430000Y-50820000D03*
G04 #@! TD*
D13*
G04 #@! TO.P,J3,1,Pin_1*
G04 #@! TO.N,Net-(J3-Pin_1)*
X154940000Y-50800000D03*
D14*
G04 #@! TO.P,J3,2,Pin_2*
G04 #@! TO.N,/TP_INT_N*
X154940000Y-53340000D03*
G04 #@! TO.P,J3,3,Pin_3*
G04 #@! TO.N,/TP_RST_N*
X154940000Y-55880000D03*
G04 #@! TO.P,J3,4,Pin_4*
G04 #@! TO.N,/LCD_TE_N*
X154940000Y-58420000D03*
G04 #@! TO.P,J3,5,Pin_5*
G04 #@! TO.N,/TP_I2C_SCL*
X154940000Y-60960000D03*
G04 #@! TO.P,J3,6,Pin_6*
G04 #@! TO.N,/TP_I2C_SDA*
X154940000Y-63500000D03*
G04 #@! TO.P,J3,7,Pin_7*
G04 #@! TO.N,Net-(J3-Pin_7)*
X154940000Y-66040000D03*
G04 #@! TO.P,J3,8,Pin_8*
G04 #@! TO.N,Earth*
X154940000Y-68580000D03*
G04 #@! TD*
D13*
G04 #@! TO.P,J2,1,Pin_1*
G04 #@! TO.N,/LCD_RS_N*
X177800000Y-50800000D03*
D14*
G04 #@! TO.P,J2,2,Pin_2*
G04 #@! TO.N,/LCD_RST_N*
X177800000Y-53340000D03*
G04 #@! TO.P,J2,3,Pin_3*
G04 #@! TO.N,/LCD_CS_N*
X177800000Y-55880000D03*
G04 #@! TO.P,J2,4,Pin_4*
G04 #@! TO.N,/LCD_SPI_CLK*
X177800000Y-58420000D03*
G04 #@! TO.P,J2,5,Pin_5*
G04 #@! TO.N,unconnected-(J2-Pin_5-Pad5)*
X177800000Y-60960000D03*
G04 #@! TO.P,J2,6,Pin_6*
G04 #@! TO.N,/LCD_SPI_MOSI*
X177800000Y-63500000D03*
G04 #@! TO.P,J2,7,Pin_7*
G04 #@! TO.N,/VDD_3V3_LCD*
X177800000Y-66040000D03*
G04 #@! TO.P,J2,8,Pin_8*
G04 #@! TO.N,Earth*
X177800000Y-68580000D03*
G04 #@! TD*
D15*
G04 #@! TO.P,Q1,1,G*
G04 #@! TO.N,Net-(Q1-G)*
X184587500Y-77250000D03*
G04 #@! TO.P,Q1,2,S*
G04 #@! TO.N,Earth*
X184587500Y-75350000D03*
G04 #@! TO.P,Q1,3,D*
G04 #@! TO.N,/LCD_LED_K*
X182712500Y-76300000D03*
G04 #@! TD*
D16*
G04 #@! TO.P,R5,1*
G04 #@! TO.N,Net-(Q1-G)*
X159410000Y-50820000D03*
G04 #@! TO.P,R5,2*
G04 #@! TO.N,Net-(J3-Pin_1)*
X158390000Y-50820000D03*
G04 #@! TD*
D17*
G04 #@! TO.P,J1,1,Pin_1*
G04 #@! TO.N,/LCD_RST_N*
X173052500Y-74197500D03*
D18*
G04 #@! TO.P,J1,2,Pin_2*
G04 #@! TO.N,/LCD_TE_N*
X176112500Y-74487500D03*
D17*
G04 #@! TO.P,J1,3,Pin_3*
G04 #@! TO.N,/LCD_CS_N*
X173052500Y-74787500D03*
D18*
G04 #@! TO.P,J1,4,Pin_4*
G04 #@! TO.N,/LCD_SPI_CLK*
X176112500Y-75087500D03*
D17*
G04 #@! TO.P,J1,5,Pin_5*
G04 #@! TO.N,/LCD_SPI_MOSI*
X173052500Y-75387500D03*
D18*
G04 #@! TO.P,J1,6,Pin_6*
G04 #@! TO.N,Earth*
X176112500Y-75697500D03*
D17*
G04 #@! TO.P,J1,7,Pin_7*
G04 #@! TO.N,/LCD_LED_A*
X173052500Y-75997500D03*
D18*
G04 #@! TO.P,J1,8,Pin_8*
G04 #@! TO.N,/LCD_LED_K*
X176112500Y-76297500D03*
D17*
G04 #@! TO.P,J1,9,Pin_9*
G04 #@! TO.N,/VDD_3V3_LCD*
X173052500Y-76597500D03*
D18*
G04 #@! TO.P,J1,10,Pin_10*
G04 #@! TO.N,/TP_INT_N*
X176112500Y-76897500D03*
D17*
G04 #@! TO.P,J1,11,Pin_11*
G04 #@! TO.N,/TP_RST_N*
X173052500Y-77187500D03*
D18*
G04 #@! TO.P,J1,12,Pin_12*
G04 #@! TO.N,/TP_I2C_SDA*
X176112500Y-77487500D03*
D17*
G04 #@! TO.P,J1,13,Pin_13*
G04 #@! TO.N,/TP_I2C_SCL*
X173052500Y-77787500D03*
D18*
G04 #@! TO.P,J1,14,Pin_14*
G04 #@! TO.N,Earth*
X176112500Y-78087500D03*
D17*
G04 #@! TO.P,J1,15,Pin_15*
G04 #@! TO.N,/LCD_RS_N*
X173052500Y-78387500D03*
D19*
G04 #@! TO.P,J1,16*
G04 #@! TO.N,N/C*
X173312500Y-79367500D03*
G04 #@! TO.P,J1,17*
X173312500Y-73217500D03*
G04 #@! TD*
D10*
G04 #@! TO.P,C1,1*
G04 #@! TO.N,/VDD_3V3_LCD*
X168200000Y-75600000D03*
G04 #@! TO.P,C1,2*
G04 #@! TO.N,Earth*
X167240000Y-75600000D03*
G04 #@! TD*
D16*
G04 #@! TO.P,R3,1*
G04 #@! TO.N,/VDD_3V3_LCD*
X160100000Y-63510000D03*
G04 #@! TO.P,R3,2*
G04 #@! TO.N,/TP_I2C_SDA*
X159080000Y-63510000D03*
G04 #@! TD*
G04 #@! TO.P,R4,1*
G04 #@! TO.N,/VDD_3V3_LCD*
X160050000Y-61020000D03*
G04 #@! TO.P,R4,2*
G04 #@! TO.N,/TP_I2C_SCL*
X159030000Y-61020000D03*
G04 #@! TD*
D20*
G04 #@! TO.N,Earth*
X174600000Y-80320000D03*
X163240000Y-53780000D03*
X179260000Y-74010000D03*
X157980000Y-53700000D03*
X165310000Y-80240000D03*
X179240000Y-72060000D03*
X167420000Y-53850000D03*
X175580000Y-80320000D03*
X161320000Y-80300000D03*
X172460000Y-70520000D03*
X165480000Y-53830000D03*
X163720000Y-71040000D03*
X163850000Y-75570000D03*
X173680000Y-71540000D03*
X174690000Y-75760000D03*
X160360000Y-53680000D03*
X163780000Y-73490000D03*
X168420000Y-80260000D03*
G04 #@! TO.N,/VDD_3V3_LCD*
X165800000Y-63510000D03*
X168190000Y-72220000D03*
G04 #@! TO.N,/LCD_RST_N*
X171470000Y-59020000D03*
G04 #@! TO.N,/LCD_SPI_MOSI*
X170260000Y-64330000D03*
G04 #@! TO.N,/LCD_RS_N*
X176800000Y-81400000D03*
G04 #@! TO.N,/LCD_CS_N*
X170660000Y-59980000D03*
G04 #@! TO.N,/TP_RST_N*
X160750000Y-69230000D03*
G04 #@! TO.N,/TP_I2C_SCL*
X159260000Y-68210000D03*
G04 #@! TD*
D21*
G04 #@! TO.N,Earth*
X176112500Y-78087500D02*
X174952500Y-78087500D01*
X174650000Y-78390000D02*
X174600000Y-78440000D01*
X177160000Y-78240000D02*
X177160000Y-79760000D01*
X178142500Y-75697500D02*
X179260000Y-74580000D01*
X179260000Y-74580000D02*
X179260000Y-74010000D01*
X174600000Y-78440000D02*
X174600000Y-80320000D01*
X174792500Y-75697500D02*
X174650000Y-75840000D01*
X174650000Y-75840000D02*
X174650000Y-78390000D01*
X177160000Y-79760000D02*
X177180000Y-79780000D01*
X177180000Y-79780000D02*
X176640000Y-80320000D01*
X176112500Y-78087500D02*
X177007500Y-78087500D01*
X176640000Y-80320000D02*
X175580000Y-80320000D01*
X177007500Y-78087500D02*
X177160000Y-78240000D01*
X174952500Y-78087500D02*
X174600000Y-78440000D01*
X176112500Y-75697500D02*
X174792500Y-75697500D01*
X176112500Y-75697500D02*
X178142500Y-75697500D01*
G04 #@! TO.N,/VDD_3V3_LCD*
X168200000Y-72230000D02*
X168190000Y-72220000D01*
X160050000Y-63460000D02*
X160100000Y-63510000D01*
X165820000Y-63530000D02*
X165800000Y-63510000D01*
X168210000Y-76600000D02*
X168210000Y-75610000D01*
D22*
X173052500Y-76597500D02*
X168212500Y-76597500D01*
D23*
X160050000Y-61020000D02*
X160050000Y-63460000D01*
D21*
X168212500Y-76597500D02*
X168210000Y-76600000D01*
X168210000Y-75610000D02*
X168200000Y-75600000D01*
D23*
X168200000Y-75600000D02*
X168200000Y-72230000D01*
X160100000Y-63510000D02*
X165800000Y-63510000D01*
D21*
G04 #@! TO.N,/LCD_RST_N*
X171470000Y-70380000D02*
X171470000Y-59020000D01*
X171837500Y-74197500D02*
X171470000Y-73830000D01*
X171470000Y-73830000D02*
X171470000Y-70380000D01*
X173052500Y-74197500D02*
X171837500Y-74197500D01*
X171470000Y-70380000D02*
X171470000Y-68860000D01*
G04 #@! TO.N,/LCD_SPI_MOSI*
X170260000Y-72750000D02*
X170260000Y-64330000D01*
X170260000Y-74650000D02*
X170260000Y-72750000D01*
X170997500Y-75387500D02*
X170260000Y-74650000D01*
X170260000Y-72750000D02*
X170260000Y-70680000D01*
X173052500Y-75387500D02*
X170997500Y-75387500D01*
G04 #@! TO.N,/LCD_RS_N*
X172020000Y-81400000D02*
X176800000Y-81400000D01*
X171510000Y-80890000D02*
X172020000Y-81400000D01*
X171510000Y-78870000D02*
X171510000Y-80890000D01*
X173052500Y-78387500D02*
X171992500Y-78387500D01*
X171992500Y-78387500D02*
X171510000Y-78870000D01*
G04 #@! TO.N,/LCD_CS_N*
X170660000Y-59980000D02*
X170660000Y-61930000D01*
X171010000Y-62280000D02*
X171010000Y-71630000D01*
X171447500Y-74787500D02*
X171010000Y-74350000D01*
X171010000Y-71630000D02*
X171010000Y-70050000D01*
X171010000Y-74350000D02*
X171010000Y-71630000D01*
X173052500Y-74787500D02*
X171447500Y-74787500D01*
X170660000Y-61930000D02*
X171010000Y-62280000D01*
G04 #@! TO.N,/TP_RST_N*
X160790000Y-69440000D02*
X160790000Y-69270000D01*
X165870000Y-77770000D02*
X162650000Y-77770000D01*
X160750000Y-69480000D02*
X160790000Y-69440000D01*
X170550000Y-77470000D02*
X170250000Y-77770000D01*
X173052500Y-77187500D02*
X170832500Y-77187500D01*
X170250000Y-77770000D02*
X165870000Y-77770000D01*
X170832500Y-77187500D02*
X170550000Y-77470000D01*
X162650000Y-77770000D02*
X160750000Y-75870000D01*
X160790000Y-69270000D02*
X160750000Y-69230000D01*
X160750000Y-75870000D02*
X160750000Y-69480000D01*
D22*
G04 #@! TO.N,/LCD_LED_A*
X170277500Y-75997500D02*
X169380000Y-75100000D01*
X167740000Y-66060000D02*
X161492500Y-66060000D01*
X173052500Y-75997500D02*
X170277500Y-75997500D01*
X169380000Y-67700000D02*
X167740000Y-66060000D01*
X169380000Y-75100000D02*
X169380000Y-67700000D01*
G04 #@! TO.N,/LCD_LED_K*
X176112500Y-76297500D02*
X182710000Y-76297500D01*
D21*
X182710000Y-76297500D02*
X182712500Y-76300000D01*
G04 #@! TO.N,/TP_I2C_SDA*
X153080000Y-82090000D02*
X152640000Y-81650000D01*
X177472900Y-82090000D02*
X153080000Y-82090000D01*
X152640000Y-64190000D02*
X153330000Y-63500000D01*
X153330000Y-63500000D02*
X154940000Y-63500000D01*
X177517500Y-77487500D02*
X177970000Y-77940000D01*
X152640000Y-81650000D02*
X152640000Y-64190000D01*
X154940000Y-63500000D02*
X159070000Y-63500000D01*
X159070000Y-63500000D02*
X159080000Y-63510000D01*
X176112500Y-77487500D02*
X177517500Y-77487500D01*
X177970000Y-81592900D02*
X177472900Y-82090000D01*
X177970000Y-77940000D02*
X177970000Y-81592900D01*
G04 #@! TO.N,/LCD_SPI_CLK*
X174100000Y-59800000D02*
X175480000Y-58420000D01*
X176112500Y-75087500D02*
X177052500Y-75087500D01*
X174100000Y-69470000D02*
X174100000Y-59800000D01*
X177052500Y-75087500D02*
X177270000Y-74870000D01*
X175480000Y-58420000D02*
X177800000Y-58420000D01*
X177270000Y-72640000D02*
X174100000Y-69470000D01*
X177270000Y-74870000D02*
X177270000Y-72640000D01*
G04 #@! TO.N,/TP_INT_N*
X176770000Y-83360000D02*
X153080000Y-83360000D01*
X152280000Y-82980000D02*
X151605000Y-82305000D01*
X176112500Y-76897500D02*
X177747500Y-76897500D01*
X151605000Y-54685000D02*
X151605000Y-82305000D01*
X178420000Y-81710000D02*
X178030000Y-82100000D01*
X178420000Y-77570000D02*
X178420000Y-81710000D01*
X153080000Y-83360000D02*
X152660000Y-83360000D01*
X177747500Y-76897500D02*
X178420000Y-77570000D01*
X178030000Y-82100000D02*
X176770000Y-83360000D01*
X154940000Y-53340000D02*
X152950000Y-53340000D01*
X152660000Y-83360000D02*
X152280000Y-82980000D01*
X152950000Y-53340000D02*
X151605000Y-54685000D01*
G04 #@! TO.N,/TP_I2C_SCL*
X159260000Y-75290000D02*
X159260000Y-68460000D01*
X171402500Y-77787500D02*
X171130000Y-78060000D01*
X171130000Y-78060000D02*
X170910000Y-78280000D01*
X159260000Y-68460000D02*
X159260000Y-68210000D01*
X159030000Y-61020000D02*
X155000000Y-61020000D01*
X173052500Y-77787500D02*
X171402500Y-77787500D01*
X167970000Y-78280000D02*
X162250000Y-78280000D01*
X160480000Y-76510000D02*
X159260000Y-75290000D01*
X162250000Y-78280000D02*
X160480000Y-76510000D01*
X170910000Y-78280000D02*
X167970000Y-78280000D01*
X155000000Y-61020000D02*
X154940000Y-60960000D01*
G04 #@! TO.N,/LCD_TE_N*
X154940000Y-58420000D02*
X172760000Y-58420000D01*
X176112500Y-72122500D02*
X176112500Y-74487500D01*
X173430000Y-69440000D02*
X176112500Y-72122500D01*
X172760000Y-58420000D02*
X173430000Y-59090000D01*
X173430000Y-59090000D02*
X173430000Y-69440000D01*
G04 #@! TO.N,Net-(J3-Pin_1)*
X154960000Y-50820000D02*
X154940000Y-50800000D01*
X158390000Y-50820000D02*
X154960000Y-50820000D01*
G04 #@! TO.N,Net-(J3-Pin_7)*
X154960000Y-66060000D02*
X154940000Y-66040000D01*
D24*
X158567500Y-66060000D02*
X154960000Y-66060000D01*
D21*
G04 #@! TO.N,Net-(Q1-G)*
X149480000Y-50380000D02*
X151980000Y-47880000D01*
X184587500Y-77250000D02*
X184587500Y-81502500D01*
X159410000Y-48560000D02*
X159410000Y-50820000D01*
X158730000Y-47880000D02*
X159410000Y-48560000D01*
X152860000Y-85470000D02*
X149480000Y-82090000D01*
X149480000Y-82090000D02*
X149480000Y-50380000D01*
X184587500Y-81502500D02*
X180620000Y-85470000D01*
X180620000Y-85470000D02*
X152860000Y-85470000D01*
X159410000Y-50820000D02*
X161410000Y-50820000D01*
X151980000Y-47880000D02*
X158730000Y-47880000D01*
G04 #@! TD*
G04 #@! TA.AperFunction,Conductor*
G04 #@! TO.N,/TP_I2C_SCL*
G36*
X159540930Y-68265835D02*
G01*
X159548358Y-68270834D01*
X159550077Y-68279622D01*
X159549608Y-68281290D01*
X159362796Y-68796524D01*
X159356755Y-68803134D01*
X159351797Y-68804236D01*
X159168203Y-68804236D01*
X159159930Y-68800809D01*
X159157204Y-68796524D01*
X159109544Y-68665078D01*
X158970391Y-68281288D01*
X158970792Y-68272344D01*
X158977402Y-68266303D01*
X158979056Y-68265837D01*
X159257682Y-68209469D01*
X159262318Y-68209469D01*
X159540930Y-68265835D01*
G37*
G04 #@! TD.AperFunction*
G04 #@! TD*
G04 #@! TA.AperFunction,Conductor*
G04 #@! TO.N,Net-(J3-Pin_1)*
G36*
X155798194Y-49967274D02*
G01*
X156636099Y-50716512D01*
X156639982Y-50724580D01*
X156640000Y-50725233D01*
X156640000Y-50914625D01*
X156636573Y-50922898D01*
X156635923Y-50923501D01*
X155798222Y-51642938D01*
X155789713Y-51645728D01*
X155782331Y-51642340D01*
X155062646Y-50923501D01*
X154947335Y-50808325D01*
X154943904Y-50800056D01*
X154947326Y-50791781D01*
X155782178Y-49967668D01*
X155790471Y-49964296D01*
X155798194Y-49967274D01*
G37*
G04 #@! TD.AperFunction*
G04 #@! TD*
G04 #@! TA.AperFunction,Conductor*
G04 #@! TO.N,/LCD_CS_N*
G36*
X172721472Y-74644214D02*
G01*
X173028608Y-74776758D01*
X173034846Y-74783182D01*
X173034714Y-74792136D01*
X173028608Y-74798242D01*
X172721472Y-74930785D01*
X172713368Y-74931217D01*
X172580732Y-74890054D01*
X172573846Y-74884329D01*
X172572500Y-74878880D01*
X172572500Y-74696119D01*
X172575927Y-74687846D01*
X172580731Y-74684945D01*
X172713368Y-74643782D01*
X172721472Y-74644214D01*
G37*
G04 #@! TD.AperFunction*
G04 #@! TD*
G04 #@! TA.AperFunction,Conductor*
G04 #@! TO.N,Net-(J3-Pin_7)*
G36*
X155117540Y-65209062D02*
G01*
X156614622Y-65557892D01*
X156621902Y-65563107D01*
X156623667Y-65569287D01*
X156623667Y-66550470D01*
X156620240Y-66558743D01*
X156614335Y-66561928D01*
X155117357Y-66871284D01*
X155108561Y-66869602D01*
X155103531Y-66862194D01*
X154939459Y-66042293D01*
X154939459Y-66037704D01*
X155033195Y-65569287D01*
X155103458Y-65218168D01*
X155108441Y-65210731D01*
X155117226Y-65208994D01*
X155117540Y-65209062D01*
G37*
G04 #@! TD.AperFunction*
G04 #@! TD*
G04 #@! TA.AperFunction,Conductor*
G04 #@! TO.N,/LCD_LED_A*
G36*
X162063086Y-65503430D02*
G01*
X162612720Y-65906494D01*
X162617364Y-65914149D01*
X162617500Y-65915928D01*
X162617500Y-66204071D01*
X162614073Y-66212344D01*
X162612719Y-66213506D01*
X162063086Y-66616569D01*
X162054388Y-66618698D01*
X162047901Y-66615414D01*
X161499793Y-66068278D01*
X161496360Y-66060010D01*
X161499779Y-66051735D01*
X162047903Y-65504584D01*
X162056177Y-65501165D01*
X162063086Y-65503430D01*
G37*
G04 #@! TD.AperFunction*
G04 #@! TD*
G04 #@! TA.AperFunction,Conductor*
G04 #@! TO.N,Net-(J3-Pin_7)*
G36*
X158008018Y-65500612D02*
G01*
X158008975Y-65501468D01*
X158560205Y-66051720D01*
X158563639Y-66059990D01*
X158560219Y-66068266D01*
X158560205Y-66068280D01*
X158008975Y-66618531D01*
X158000699Y-66621951D01*
X157999417Y-66621879D01*
X157452908Y-66561156D01*
X157445064Y-66556837D01*
X157442500Y-66549528D01*
X157442500Y-65570471D01*
X157445927Y-65562198D01*
X157452906Y-65558843D01*
X157999417Y-65498120D01*
X158008018Y-65500612D01*
G37*
G04 #@! TD.AperFunction*
G04 #@! TD*
G04 #@! TA.AperFunction,Conductor*
G04 #@! TO.N,Net-(Q1-G)*
G36*
X161178810Y-50557086D02*
G01*
X161404160Y-50812255D01*
X161407068Y-50820725D01*
X161404160Y-50827745D01*
X161178810Y-51082913D01*
X161170765Y-51086846D01*
X161164309Y-51085368D01*
X160875969Y-50923353D01*
X160870435Y-50916313D01*
X160870000Y-50913153D01*
X160870000Y-50726846D01*
X160873427Y-50718573D01*
X160875969Y-50716646D01*
X161164310Y-50554630D01*
X161173200Y-50553566D01*
X161178810Y-50557086D01*
G37*
G04 #@! TD.AperFunction*
G04 #@! TD*
G04 #@! TA.AperFunction,Conductor*
G04 #@! TO.N,/VDD_3V3_LCD*
G36*
X168474228Y-72276502D02*
G01*
X168481657Y-72281502D01*
X168483584Y-72288716D01*
X168450700Y-72803282D01*
X168446753Y-72811320D01*
X168439024Y-72814236D01*
X167960575Y-72814236D01*
X167952302Y-72810809D01*
X167948935Y-72803715D01*
X167937730Y-72693049D01*
X167896831Y-72289070D01*
X167899407Y-72280495D01*
X167906149Y-72276425D01*
X168187682Y-72219469D01*
X168192318Y-72219469D01*
X168474228Y-72276502D01*
G37*
G04 #@! TD.AperFunction*
G04 #@! TD*
G04 #@! TA.AperFunction,Conductor*
G04 #@! TO.N,Net-(Q1-G)*
G36*
X159510723Y-50233427D02*
G01*
X159513111Y-50236881D01*
X159666231Y-50575611D01*
X159666516Y-50584561D01*
X159663468Y-50589062D01*
X159417898Y-50813772D01*
X159409482Y-50816829D01*
X159402102Y-50813772D01*
X159156531Y-50589062D01*
X159152740Y-50580948D01*
X159153767Y-50575614D01*
X159306889Y-50236880D01*
X159313419Y-50230753D01*
X159317550Y-50230000D01*
X159502450Y-50230000D01*
X159510723Y-50233427D01*
G37*
G04 #@! TD.AperFunction*
G04 #@! TD*
G04 #@! TA.AperFunction,Conductor*
G04 #@! TO.N,/LCD_TE_N*
G36*
X176212154Y-74200927D02*
G01*
X176215055Y-74205732D01*
X176255414Y-74335779D01*
X176254594Y-74344696D01*
X176252542Y-74347492D01*
X176120802Y-74480140D01*
X176112540Y-74483595D01*
X176104255Y-74480197D01*
X176104199Y-74480140D01*
X175972458Y-74347492D01*
X175969059Y-74339207D01*
X175969584Y-74335784D01*
X176009945Y-74205731D01*
X176015670Y-74198846D01*
X176021119Y-74197500D01*
X176203881Y-74197500D01*
X176212154Y-74200927D01*
G37*
G04 #@! TD.AperFunction*
G04 #@! TD*
G04 #@! TA.AperFunction,Conductor*
G04 #@! TO.N,/LCD_SPI_MOSI*
G36*
X172721472Y-75244214D02*
G01*
X173028608Y-75376758D01*
X173034846Y-75383182D01*
X173034714Y-75392136D01*
X173028608Y-75398242D01*
X172721472Y-75530785D01*
X172713368Y-75531217D01*
X172580732Y-75490054D01*
X172573846Y-75484329D01*
X172572500Y-75478880D01*
X172572500Y-75296119D01*
X172575927Y-75287846D01*
X172580731Y-75284945D01*
X172713368Y-75243782D01*
X172721472Y-75244214D01*
G37*
G04 #@! TD.AperFunction*
G04 #@! TD*
G04 #@! TA.AperFunction,Conductor*
G04 #@! TO.N,Net-(Q1-G)*
G36*
X184595758Y-77257285D02*
G01*
X184749349Y-77411389D01*
X184880740Y-77543218D01*
X184884153Y-77551496D01*
X184882188Y-77557967D01*
X184690973Y-77844790D01*
X184683533Y-77849773D01*
X184681238Y-77850000D01*
X184493762Y-77850000D01*
X184485489Y-77846573D01*
X184484027Y-77844790D01*
X184292811Y-77557967D01*
X184291073Y-77549182D01*
X184294259Y-77543218D01*
X184579214Y-77257313D01*
X184587481Y-77253873D01*
X184595758Y-77257285D01*
G37*
G04 #@! TD.AperFunction*
G04 #@! TD*
G04 #@! TA.AperFunction,Conductor*
G04 #@! TO.N,/LCD_SPI_CLK*
G36*
X177333503Y-57721821D02*
G01*
X177796640Y-58413490D01*
X177798395Y-58422271D01*
X177796640Y-58426510D01*
X177333503Y-59118178D01*
X177326052Y-59123145D01*
X177318541Y-59122129D01*
X176122793Y-58523235D01*
X176116931Y-58516466D01*
X176116333Y-58512774D01*
X176116333Y-58327225D01*
X176119760Y-58318952D01*
X176122790Y-58316765D01*
X177318543Y-57717869D01*
X177327473Y-57717229D01*
X177333503Y-57721821D01*
G37*
G04 #@! TD.AperFunction*
G04 #@! TD*
G04 #@! TA.AperFunction,Conductor*
G04 #@! TO.N,/LCD_LED_K*
G36*
X182071824Y-76013306D02*
G01*
X182372175Y-76147500D01*
X182689591Y-76289318D01*
X182695746Y-76295821D01*
X182695500Y-76304773D01*
X182689591Y-76310682D01*
X182071896Y-76586660D01*
X182063166Y-76586989D01*
X181682743Y-76450282D01*
X181676116Y-76444259D01*
X181675000Y-76439271D01*
X181675000Y-76155827D01*
X181678427Y-76147554D01*
X181682865Y-76144773D01*
X182063223Y-76012934D01*
X182071824Y-76013306D01*
G37*
G04 #@! TD.AperFunction*
G04 #@! TD*
G04 #@! TA.AperFunction,Conductor*
G04 #@! TO.N,/TP_I2C_SCL*
G36*
X155421630Y-60258422D02*
G01*
X156617608Y-60916665D01*
X156623204Y-60923656D01*
X156623667Y-60926915D01*
X156623667Y-61112444D01*
X156620240Y-61120717D01*
X156616780Y-61123108D01*
X155421260Y-61662675D01*
X155412310Y-61662955D01*
X155406726Y-61658521D01*
X154943358Y-60966509D01*
X154941604Y-60957729D01*
X154943359Y-60953490D01*
X155406269Y-60262160D01*
X155413718Y-60257195D01*
X155421630Y-60258422D01*
G37*
G04 #@! TD.AperFunction*
G04 #@! TD*
G04 #@! TA.AperFunction,Conductor*
G04 #@! TO.N,/VDD_3V3_LCD*
G36*
X168310791Y-76013427D02*
G01*
X168313139Y-76016792D01*
X168475578Y-76368277D01*
X168475938Y-76377224D01*
X168472450Y-76382171D01*
X168217493Y-76594752D01*
X168208944Y-76597418D01*
X168202507Y-76594752D01*
X168090383Y-76501264D01*
X167947548Y-76382170D01*
X167943390Y-76374241D01*
X167944420Y-76368280D01*
X168106861Y-76016791D01*
X168113443Y-76010719D01*
X168117482Y-76010000D01*
X168302518Y-76010000D01*
X168310791Y-76013427D01*
G37*
G04 #@! TD.AperFunction*
G04 #@! TD*
G04 #@! TA.AperFunction,Conductor*
G04 #@! TO.N,/VDD_3V3_LCD*
G36*
X168439050Y-76322043D02*
G01*
X168762448Y-76444637D01*
X168768969Y-76450773D01*
X168770000Y-76455576D01*
X168770000Y-76739515D01*
X168766573Y-76747788D01*
X168762564Y-76750410D01*
X168442007Y-76875873D01*
X168433054Y-76875697D01*
X168428637Y-76872324D01*
X168214862Y-76607269D01*
X168212337Y-76598679D01*
X168214788Y-76592674D01*
X168425728Y-76325728D01*
X168433544Y-76321364D01*
X168439050Y-76322043D01*
G37*
G04 #@! TD.AperFunction*
G04 #@! TD*
G04 #@! TA.AperFunction,Conductor*
G04 #@! TO.N,/VDD_3V3_LCD*
G36*
X168207491Y-75605246D02*
G01*
X168430486Y-75791178D01*
X168462611Y-75817963D01*
X168466770Y-75825893D01*
X168465847Y-75831615D01*
X168313059Y-76182966D01*
X168306618Y-76189186D01*
X168302330Y-76190000D01*
X168117300Y-76190000D01*
X168109027Y-76186573D01*
X168106791Y-76183443D01*
X167934694Y-75831824D01*
X167934135Y-75822887D01*
X167937710Y-75817695D01*
X168192508Y-75605246D01*
X168201056Y-75602581D01*
X168207491Y-75605246D01*
G37*
G04 #@! TD.AperFunction*
G04 #@! TD*
G04 #@! TA.AperFunction,Conductor*
G04 #@! TO.N,/TP_I2C_SDA*
G36*
X155421457Y-62797869D02*
G01*
X156617207Y-63396764D01*
X156623069Y-63403533D01*
X156623667Y-63407225D01*
X156623667Y-63592774D01*
X156620240Y-63601047D01*
X156617207Y-63603235D01*
X155421458Y-64202129D01*
X155412526Y-64202770D01*
X155406496Y-64198178D01*
X154943359Y-63506510D01*
X154941604Y-63497729D01*
X154943359Y-63493490D01*
X155406497Y-62801820D01*
X155413947Y-62796854D01*
X155421457Y-62797869D01*
G37*
G04 #@! TD.AperFunction*
G04 #@! TD*
G04 #@! TA.AperFunction,Conductor*
G04 #@! TO.N,Net-(Q1-G)*
G36*
X159655690Y-50554631D02*
G01*
X159944031Y-50716646D01*
X159949565Y-50723686D01*
X159950000Y-50726846D01*
X159950000Y-50913153D01*
X159946573Y-50921426D01*
X159944031Y-50923353D01*
X159655690Y-51085368D01*
X159646799Y-51086433D01*
X159641189Y-51082913D01*
X159498573Y-50921426D01*
X159415838Y-50827743D01*
X159412931Y-50819275D01*
X159415838Y-50812256D01*
X159641190Y-50557085D01*
X159649234Y-50553153D01*
X159655690Y-50554631D01*
G37*
G04 #@! TD.AperFunction*
G04 #@! TD*
G04 #@! TA.AperFunction,Conductor*
G04 #@! TO.N,/TP_INT_N*
G36*
X176362447Y-76754035D02*
G01*
X176494268Y-76794945D01*
X176501154Y-76800670D01*
X176502500Y-76806119D01*
X176502500Y-76988880D01*
X176499073Y-76997153D01*
X176494268Y-77000054D01*
X176362446Y-77040964D01*
X176353529Y-77040144D01*
X176353037Y-77039869D01*
X176232896Y-76969054D01*
X176128598Y-76907578D01*
X176123212Y-76900426D01*
X176124461Y-76891559D01*
X176128598Y-76887421D01*
X176353038Y-76755129D01*
X176361904Y-76753881D01*
X176362447Y-76754035D01*
G37*
G04 #@! TD.AperFunction*
G04 #@! TD*
G04 #@! TA.AperFunction,Conductor*
G04 #@! TO.N,/VDD_3V3_LCD*
G36*
X165739631Y-63219354D02*
G01*
X165743535Y-63225960D01*
X165800530Y-63507680D01*
X165800530Y-63512320D01*
X165743535Y-63794039D01*
X165738535Y-63801468D01*
X165731104Y-63803379D01*
X165216501Y-63760886D01*
X165208538Y-63756790D01*
X165205764Y-63749226D01*
X165205764Y-63270773D01*
X165209191Y-63262500D01*
X165216499Y-63259113D01*
X165731104Y-63216620D01*
X165739631Y-63219354D01*
G37*
G04 #@! TD.AperFunction*
G04 #@! TD*
G04 #@! TA.AperFunction,Conductor*
G04 #@! TO.N,Net-(J3-Pin_1)*
G36*
X158158810Y-50557086D02*
G01*
X158384160Y-50812255D01*
X158387068Y-50820725D01*
X158384160Y-50827745D01*
X158158810Y-51082913D01*
X158150765Y-51086846D01*
X158144309Y-51085368D01*
X157855969Y-50923353D01*
X157850435Y-50916313D01*
X157850000Y-50913153D01*
X157850000Y-50726846D01*
X157853427Y-50718573D01*
X157855969Y-50716646D01*
X158144310Y-50554630D01*
X158153200Y-50553566D01*
X158158810Y-50557086D01*
G37*
G04 #@! TD.AperFunction*
G04 #@! TD*
G04 #@! TA.AperFunction,Conductor*
G04 #@! TO.N,/TP_I2C_SDA*
G36*
X176362447Y-77344035D02*
G01*
X176494268Y-77384945D01*
X176501154Y-77390670D01*
X176502500Y-77396119D01*
X176502500Y-77578880D01*
X176499073Y-77587153D01*
X176494268Y-77590054D01*
X176362446Y-77630964D01*
X176353529Y-77630144D01*
X176353037Y-77629869D01*
X176232896Y-77559054D01*
X176128598Y-77497578D01*
X176123212Y-77490426D01*
X176124461Y-77481559D01*
X176128598Y-77477421D01*
X176353038Y-77345129D01*
X176361904Y-77343881D01*
X176362447Y-77344035D01*
G37*
G04 #@! TD.AperFunction*
G04 #@! TD*
G04 #@! TA.AperFunction,Conductor*
G04 #@! TO.N,/LCD_TE_N*
G36*
X155421457Y-57717869D02*
G01*
X156617207Y-58316764D01*
X156623069Y-58323533D01*
X156623667Y-58327225D01*
X156623667Y-58512774D01*
X156620240Y-58521047D01*
X156617207Y-58523235D01*
X155421458Y-59122129D01*
X155412526Y-59122770D01*
X155406496Y-59118178D01*
X154943359Y-58426510D01*
X154941604Y-58417729D01*
X154943359Y-58413490D01*
X155406497Y-57721820D01*
X155413947Y-57716854D01*
X155421457Y-57717869D01*
G37*
G04 #@! TD.AperFunction*
G04 #@! TD*
G04 #@! TA.AperFunction,Conductor*
G04 #@! TO.N,/TP_I2C_SCL*
G36*
X172721472Y-77644214D02*
G01*
X173028608Y-77776758D01*
X173034846Y-77783182D01*
X173034714Y-77792136D01*
X173028608Y-77798242D01*
X172721472Y-77930785D01*
X172713368Y-77931217D01*
X172580732Y-77890054D01*
X172573846Y-77884329D01*
X172572500Y-77878880D01*
X172572500Y-77696119D01*
X172575927Y-77687846D01*
X172580731Y-77684945D01*
X172713368Y-77643782D01*
X172721472Y-77644214D01*
G37*
G04 #@! TD.AperFunction*
G04 #@! TD*
G04 #@! TA.AperFunction,Conductor*
G04 #@! TO.N,/TP_I2C_SDA*
G36*
X158851623Y-63242744D02*
G01*
X159074268Y-63502157D01*
X159077056Y-63510667D01*
X159074048Y-63517647D01*
X158845985Y-63768560D01*
X158837885Y-63772377D01*
X158831411Y-63770784D01*
X158545784Y-63603389D01*
X158540379Y-63596250D01*
X158540000Y-63593295D01*
X158540000Y-63406990D01*
X158543427Y-63398717D01*
X158546156Y-63396687D01*
X158837202Y-63240060D01*
X158846110Y-63239158D01*
X158851623Y-63242744D01*
G37*
G04 #@! TD.AperFunction*
G04 #@! TD*
G04 #@! TA.AperFunction,Conductor*
G04 #@! TO.N,/LCD_SPI_CLK*
G36*
X176362447Y-74944035D02*
G01*
X176494268Y-74984945D01*
X176501154Y-74990670D01*
X176502500Y-74996119D01*
X176502500Y-75178880D01*
X176499073Y-75187153D01*
X176494268Y-75190054D01*
X176362446Y-75230964D01*
X176353529Y-75230144D01*
X176353037Y-75229869D01*
X176232896Y-75159054D01*
X176128598Y-75097578D01*
X176123212Y-75090426D01*
X176124461Y-75081559D01*
X176128598Y-75077421D01*
X176353038Y-74945129D01*
X176361904Y-74943881D01*
X176362447Y-74944035D01*
G37*
G04 #@! TD.AperFunction*
G04 #@! TD*
G04 #@! TA.AperFunction,Conductor*
G04 #@! TO.N,/TP_I2C_SDA*
G36*
X154473712Y-62802130D02*
G01*
X154936349Y-63492788D01*
X154938106Y-63501568D01*
X154936355Y-63505801D01*
X154473598Y-64198022D01*
X154466151Y-64202996D01*
X154458459Y-64201893D01*
X153350211Y-63623631D01*
X153347350Y-63621531D01*
X153218252Y-63492433D01*
X153214825Y-63484160D01*
X153218252Y-63475887D01*
X153220917Y-63473891D01*
X154458385Y-62798370D01*
X154467289Y-62797415D01*
X154473712Y-62802130D01*
G37*
G04 #@! TD.AperFunction*
G04 #@! TD*
G04 #@! TA.AperFunction,Conductor*
G04 #@! TO.N,/TP_RST_N*
G36*
X161030930Y-69285835D02*
G01*
X161038358Y-69290834D01*
X161040077Y-69299622D01*
X161039608Y-69301290D01*
X160852796Y-69816524D01*
X160846755Y-69823134D01*
X160841797Y-69824236D01*
X160658203Y-69824236D01*
X160649930Y-69820809D01*
X160647204Y-69816524D01*
X160599544Y-69685078D01*
X160460391Y-69301288D01*
X160460792Y-69292344D01*
X160467402Y-69286303D01*
X160469056Y-69285837D01*
X160747682Y-69229469D01*
X160752318Y-69229469D01*
X161030930Y-69285835D01*
G37*
G04 #@! TD.AperFunction*
G04 #@! TD*
G04 #@! TA.AperFunction,Conductor*
G04 #@! TO.N,/LCD_RS_N*
G36*
X176737655Y-81110792D02*
G01*
X176743696Y-81117402D01*
X176744165Y-81119070D01*
X176800530Y-81397680D01*
X176800530Y-81402320D01*
X176744165Y-81680929D01*
X176739165Y-81688358D01*
X176730377Y-81690077D01*
X176728709Y-81689608D01*
X176213476Y-81502796D01*
X176206866Y-81496755D01*
X176205764Y-81491797D01*
X176205764Y-81308202D01*
X176209191Y-81299929D01*
X176213473Y-81297204D01*
X176728711Y-81110391D01*
X176737655Y-81110792D01*
G37*
G04 #@! TD.AperFunction*
G04 #@! TD*
G04 #@! TA.AperFunction,Conductor*
G04 #@! TO.N,/LCD_RS_N*
G36*
X172721472Y-78244214D02*
G01*
X173028608Y-78376758D01*
X173034846Y-78383182D01*
X173034714Y-78392136D01*
X173028608Y-78398242D01*
X172721472Y-78530785D01*
X172713368Y-78531217D01*
X172580732Y-78490054D01*
X172573846Y-78484329D01*
X172572500Y-78478880D01*
X172572500Y-78296119D01*
X172575927Y-78287846D01*
X172580731Y-78284945D01*
X172713368Y-78243782D01*
X172721472Y-78244214D01*
G37*
G04 #@! TD.AperFunction*
G04 #@! TD*
G04 #@! TA.AperFunction,Conductor*
G04 #@! TO.N,/TP_INT_N*
G36*
X154473503Y-52641821D02*
G01*
X154936640Y-53333490D01*
X154938395Y-53342271D01*
X154936640Y-53346510D01*
X154473503Y-54038178D01*
X154466052Y-54043145D01*
X154458541Y-54042129D01*
X153262793Y-53443235D01*
X153256931Y-53436466D01*
X153256333Y-53432774D01*
X153256333Y-53247225D01*
X153259760Y-53238952D01*
X153262790Y-53236765D01*
X154458543Y-52637869D01*
X154467473Y-52637229D01*
X154473503Y-52641821D01*
G37*
G04 #@! TD.AperFunction*
G04 #@! TD*
G04 #@! TA.AperFunction,Conductor*
G04 #@! TO.N,/VDD_3V3_LCD*
G36*
X168447379Y-75013427D02*
G01*
X168450776Y-75020866D01*
X168479492Y-75422893D01*
X168476664Y-75431390D01*
X168473920Y-75433712D01*
X168206098Y-75597275D01*
X168197251Y-75598663D01*
X168193902Y-75597275D01*
X167926079Y-75433712D01*
X167920804Y-75426476D01*
X167920507Y-75422897D01*
X167949224Y-75020866D01*
X167953231Y-75012858D01*
X167960894Y-75010000D01*
X168439106Y-75010000D01*
X168447379Y-75013427D01*
G37*
G04 #@! TD.AperFunction*
G04 #@! TD*
G04 #@! TA.AperFunction,Conductor*
G04 #@! TO.N,/LCD_RST_N*
G36*
X172721472Y-74054214D02*
G01*
X173028608Y-74186758D01*
X173034846Y-74193182D01*
X173034714Y-74202136D01*
X173028608Y-74208242D01*
X172721472Y-74340785D01*
X172713368Y-74341217D01*
X172580732Y-74300054D01*
X172573846Y-74294329D01*
X172572500Y-74288880D01*
X172572500Y-74106119D01*
X172575927Y-74097846D01*
X172580731Y-74094945D01*
X172713368Y-74053782D01*
X172721472Y-74054214D01*
G37*
G04 #@! TD.AperFunction*
G04 #@! TD*
G04 #@! TA.AperFunction,Conductor*
G04 #@! TO.N,Earth*
G36*
X153505724Y-64276022D02*
G01*
X153519753Y-64282269D01*
X154218956Y-64647100D01*
X154221219Y-64648502D01*
X154222360Y-64648944D01*
X154228634Y-64652471D01*
X154232184Y-64655051D01*
X154243230Y-64660679D01*
X154245426Y-64661914D01*
X154268119Y-64685179D01*
X154291740Y-64707487D01*
X154292373Y-64710043D01*
X154294213Y-64711930D01*
X154300723Y-64743762D01*
X154308536Y-64775307D01*
X154307685Y-64777801D01*
X154308214Y-64780383D01*
X154296482Y-64810679D01*
X154286000Y-64841443D01*
X154283935Y-64843082D01*
X154282985Y-64845538D01*
X154240953Y-64880480D01*
X154232181Y-64884950D01*
X154060213Y-65009890D01*
X153909890Y-65160213D01*
X153784951Y-65332179D01*
X153688444Y-65521585D01*
X153622753Y-65723760D01*
X153589500Y-65933713D01*
X153589500Y-66146286D01*
X153622753Y-66356239D01*
X153688444Y-66558414D01*
X153784951Y-66747820D01*
X153909890Y-66919786D01*
X154060213Y-67070109D01*
X154232179Y-67195048D01*
X154232181Y-67195049D01*
X154232184Y-67195051D01*
X154241493Y-67199794D01*
X154292290Y-67247766D01*
X154309087Y-67315587D01*
X154286552Y-67381722D01*
X154241505Y-67420760D01*
X154232446Y-67425376D01*
X154232440Y-67425380D01*
X154178282Y-67464727D01*
X154178282Y-67464728D01*
X154810591Y-68097037D01*
X154747007Y-68114075D01*
X154632993Y-68179901D01*
X154539901Y-68272993D01*
X154474075Y-68387007D01*
X154457037Y-68450591D01*
X153824728Y-67818282D01*
X153824727Y-67818282D01*
X153785380Y-67872439D01*
X153688904Y-68061782D01*
X153623242Y-68263869D01*
X153623242Y-68263872D01*
X153590000Y-68473753D01*
X153590000Y-68686246D01*
X153623242Y-68896127D01*
X153623242Y-68896130D01*
X153688904Y-69098217D01*
X153785375Y-69287550D01*
X153824728Y-69341716D01*
X154457037Y-68709408D01*
X154474075Y-68772993D01*
X154539901Y-68887007D01*
X154632993Y-68980099D01*
X154747007Y-69045925D01*
X154810590Y-69062962D01*
X154178282Y-69695269D01*
X154178282Y-69695270D01*
X154232449Y-69734624D01*
X154421782Y-69831095D01*
X154623870Y-69896757D01*
X154833754Y-69930000D01*
X155046246Y-69930000D01*
X155256127Y-69896757D01*
X155256130Y-69896757D01*
X155458217Y-69831095D01*
X155647554Y-69734622D01*
X155701716Y-69695270D01*
X155701717Y-69695270D01*
X155069408Y-69062962D01*
X155132993Y-69045925D01*
X155247007Y-68980099D01*
X155340099Y-68887007D01*
X155405925Y-68772993D01*
X155422962Y-68709409D01*
X156055270Y-69341717D01*
X156055270Y-69341716D01*
X156094622Y-69287554D01*
X156191095Y-69098217D01*
X156256757Y-68896130D01*
X156256757Y-68896127D01*
X156290000Y-68686246D01*
X156290000Y-68473753D01*
X156256757Y-68263872D01*
X156256757Y-68263869D01*
X156191095Y-68061782D01*
X156094624Y-67872449D01*
X156055270Y-67818282D01*
X156055269Y-67818282D01*
X155422962Y-68450590D01*
X155405925Y-68387007D01*
X155340099Y-68272993D01*
X155247007Y-68179901D01*
X155132993Y-68114075D01*
X155069409Y-68097037D01*
X155701716Y-67464728D01*
X155700974Y-67455299D01*
X155673894Y-67420181D01*
X155667916Y-67350568D01*
X155700522Y-67288773D01*
X155761361Y-67254416D01*
X155764238Y-67253784D01*
X156687129Y-67063065D01*
X156712224Y-67060500D01*
X157369457Y-67060500D01*
X157383665Y-67061317D01*
X157392219Y-67062303D01*
X157397085Y-67063564D01*
X157562218Y-67081911D01*
X157562558Y-67081951D01*
X157594389Y-67095424D01*
X157626499Y-67108859D01*
X157626719Y-67109110D01*
X157626901Y-67109187D01*
X157627298Y-67109769D01*
X157653887Y-67140035D01*
X157662288Y-67153656D01*
X157786344Y-67277712D01*
X157935666Y-67369814D01*
X158102203Y-67424999D01*
X158204991Y-67435500D01*
X158603060Y-67435499D01*
X158670098Y-67455183D01*
X158715853Y-67507987D01*
X158725797Y-67577146D01*
X158696772Y-67640701D01*
X158690741Y-67647179D01*
X158638214Y-67699706D01*
X158638210Y-67699711D01*
X158550609Y-67830814D01*
X158550602Y-67830827D01*
X158490264Y-67976498D01*
X158490261Y-67976510D01*
X158459500Y-68131153D01*
X158459500Y-68288846D01*
X158490261Y-68443489D01*
X158490263Y-68443497D01*
X158499144Y-68464938D01*
X158501156Y-68470122D01*
X158573384Y-68669328D01*
X158639189Y-68850821D01*
X158652074Y-68886356D01*
X158659500Y-68928623D01*
X158659500Y-73197324D01*
X158639815Y-73264363D01*
X158587011Y-73310118D01*
X158517853Y-73320062D01*
X158454297Y-73291037D01*
X158447819Y-73285005D01*
X158422316Y-73259502D01*
X158422314Y-73259500D01*
X158365250Y-73226554D01*
X158308187Y-73193608D01*
X158244539Y-73176554D01*
X158180892Y-73159500D01*
X156910892Y-73159500D01*
X156779108Y-73159500D01*
X156651812Y-73193608D01*
X156537686Y-73259500D01*
X156537683Y-73259502D01*
X156444502Y-73352683D01*
X156444500Y-73352686D01*
X156378608Y-73466812D01*
X156344500Y-73594108D01*
X156344500Y-78805891D01*
X156378608Y-78933187D01*
X156388410Y-78950164D01*
X156444500Y-79047314D01*
X156537686Y-79140500D01*
X156651814Y-79206392D01*
X156779108Y-79240500D01*
X156779110Y-79240500D01*
X158180890Y-79240500D01*
X158180892Y-79240500D01*
X158308186Y-79206392D01*
X158422314Y-79140500D01*
X158515500Y-79047314D01*
X158581392Y-78933186D01*
X158615500Y-78805892D01*
X158615500Y-75794098D01*
X158621738Y-75772852D01*
X158623318Y-75750765D01*
X158631390Y-75739981D01*
X158635185Y-75727059D01*
X158651916Y-75712560D01*
X158665189Y-75694831D01*
X158677811Y-75690123D01*
X158687989Y-75681304D01*
X158709904Y-75678152D01*
X158730653Y-75670414D01*
X158743814Y-75673276D01*
X158757147Y-75671360D01*
X158777288Y-75680558D01*
X158798926Y-75685265D01*
X158816652Y-75698535D01*
X158820703Y-75700385D01*
X158827166Y-75706402D01*
X158891284Y-75770520D01*
X158891286Y-75770521D01*
X158898356Y-75777591D01*
X160118349Y-76997585D01*
X160118355Y-76997590D01*
X161765139Y-78644374D01*
X161765149Y-78644385D01*
X161769479Y-78648715D01*
X161769480Y-78648716D01*
X161881284Y-78760520D01*
X161881286Y-78760521D01*
X161881290Y-78760524D01*
X161933976Y-78790942D01*
X161933981Y-78790944D01*
X162018209Y-78839574D01*
X162018210Y-78839575D01*
X162018212Y-78839575D01*
X162018215Y-78839577D01*
X162170943Y-78880501D01*
X162170946Y-78880501D01*
X162336653Y-78880501D01*
X162336669Y-78880500D01*
X167890943Y-78880500D01*
X170785500Y-78880500D01*
X170852539Y-78900185D01*
X170898294Y-78952989D01*
X170909500Y-79004500D01*
X170909500Y-80803330D01*
X170909499Y-80803348D01*
X170909499Y-80969054D01*
X170909498Y-80969054D01*
X170909499Y-80969057D01*
X170950423Y-81121785D01*
X170975827Y-81165786D01*
X171029480Y-81258716D01*
X171057119Y-81286355D01*
X171063850Y-81296380D01*
X171070876Y-81318647D01*
X171082068Y-81339142D01*
X171081195Y-81351344D01*
X171084877Y-81363011D01*
X171078749Y-81385542D01*
X171077084Y-81408834D01*
X171069752Y-81418628D01*
X171066542Y-81430432D01*
X171049205Y-81446074D01*
X171035212Y-81464767D01*
X171023750Y-81469041D01*
X171014668Y-81477237D01*
X170991627Y-81481023D01*
X170969748Y-81489184D01*
X170960902Y-81489500D01*
X153380097Y-81489500D01*
X153313058Y-81469815D01*
X153292416Y-81453181D01*
X153276819Y-81437584D01*
X153243334Y-81376261D01*
X153240500Y-81349903D01*
X153240500Y-64490096D01*
X153260185Y-64423057D01*
X153276810Y-64402424D01*
X153374714Y-64304520D01*
X153436032Y-64271038D01*
X153505724Y-64276022D01*
G37*
G04 #@! TD.AperFunction*
G04 #@! TA.AperFunction,Conductor*
G36*
X172526942Y-59040185D02*
G01*
X172547584Y-59056819D01*
X172793181Y-59302416D01*
X172826666Y-59363739D01*
X172829500Y-59390097D01*
X172829500Y-69353330D01*
X172829499Y-69353348D01*
X172829499Y-69519054D01*
X172829498Y-69519054D01*
X172870424Y-69671789D01*
X172870425Y-69671790D01*
X172887742Y-69701783D01*
X172887743Y-69701784D01*
X172949477Y-69808712D01*
X172949481Y-69808717D01*
X173068349Y-69927585D01*
X173068355Y-69927590D01*
X175475681Y-72334916D01*
X175509166Y-72396239D01*
X175512000Y-72422597D01*
X175512000Y-73940949D01*
X175492315Y-74007988D01*
X175487267Y-74015260D01*
X175423703Y-74100169D01*
X175423702Y-74100171D01*
X175373410Y-74235013D01*
X175373409Y-74235017D01*
X175367000Y-74294627D01*
X175367000Y-74294634D01*
X175367000Y-74294635D01*
X175367000Y-74680370D01*
X175367001Y-74680376D01*
X175373409Y-74739984D01*
X175374971Y-74744173D01*
X175379952Y-74813865D01*
X175374971Y-74830827D01*
X175373409Y-74835013D01*
X175373408Y-74835017D01*
X175367001Y-74894617D01*
X175367000Y-74894636D01*
X175367000Y-75280370D01*
X175367001Y-75280376D01*
X175373409Y-75339984D01*
X175377101Y-75349884D01*
X175382083Y-75419576D01*
X175377102Y-75436542D01*
X175373903Y-75445118D01*
X175373901Y-75445127D01*
X175367500Y-75504655D01*
X175367500Y-75552500D01*
X175421046Y-75552500D01*
X175445808Y-75559771D01*
X175471390Y-75563180D01*
X175481828Y-75570347D01*
X175488085Y-75572185D01*
X175501277Y-75581953D01*
X175508456Y-75588045D01*
X175509954Y-75590046D01*
X175517254Y-75595510D01*
X175520132Y-75597953D01*
X175537330Y-75624116D01*
X175556083Y-75649168D01*
X175556361Y-75653068D01*
X175558511Y-75656338D01*
X175558834Y-75687642D01*
X175561067Y-75718860D01*
X175559192Y-75722292D01*
X175559233Y-75726204D01*
X175542584Y-75752706D01*
X175527581Y-75780183D01*
X175522629Y-75784473D01*
X175522067Y-75785369D01*
X175521039Y-75785851D01*
X175514213Y-75791766D01*
X175509952Y-75794955D01*
X175503683Y-75801225D01*
X175502242Y-75799784D01*
X175455626Y-75834682D01*
X175412292Y-75842500D01*
X175367500Y-75842500D01*
X175367500Y-75890344D01*
X175373901Y-75949872D01*
X175373903Y-75949881D01*
X175375237Y-75953457D01*
X175375448Y-75956422D01*
X175375687Y-75957430D01*
X175375523Y-75957468D01*
X175380218Y-76023149D01*
X175375238Y-76040110D01*
X175373410Y-76045011D01*
X175373409Y-76045015D01*
X175373409Y-76045017D01*
X175367000Y-76104627D01*
X175367000Y-76104634D01*
X175367000Y-76104635D01*
X175367000Y-76490370D01*
X175367001Y-76490376D01*
X175373409Y-76549984D01*
X175374971Y-76554173D01*
X175379952Y-76623865D01*
X175374971Y-76640827D01*
X175373409Y-76645013D01*
X175373408Y-76645017D01*
X175367001Y-76704617D01*
X175367000Y-76704636D01*
X175367000Y-77090370D01*
X175367001Y-77090376D01*
X175373408Y-77149979D01*
X175375192Y-77157526D01*
X175373729Y-77157871D01*
X175378085Y-77218871D01*
X175373673Y-77233896D01*
X175373408Y-77235017D01*
X175367001Y-77294617D01*
X175367000Y-77294636D01*
X175367000Y-77680370D01*
X175367001Y-77680376D01*
X175373409Y-77739984D01*
X175375237Y-77744886D01*
X175380218Y-77814578D01*
X175375238Y-77831538D01*
X175373904Y-77835112D01*
X175373901Y-77835127D01*
X175367500Y-77894655D01*
X175367500Y-77942500D01*
X175412292Y-77942500D01*
X175479331Y-77962185D01*
X175493007Y-77972367D01*
X175503374Y-77981256D01*
X175509954Y-77990046D01*
X175538869Y-78011692D01*
X175541989Y-78014367D01*
X175558880Y-78040353D01*
X175577456Y-78065168D01*
X175577758Y-78069394D01*
X175580068Y-78072948D01*
X175580229Y-78103943D01*
X175582440Y-78134860D01*
X175580408Y-78138579D01*
X175580431Y-78142817D01*
X175563808Y-78168979D01*
X175548954Y-78196182D01*
X175545234Y-78198212D01*
X175542962Y-78201790D01*
X175514836Y-78214811D01*
X175487631Y-78229667D01*
X175481274Y-78230350D01*
X175479558Y-78231145D01*
X175477077Y-78230801D01*
X175461274Y-78232500D01*
X175367500Y-78232500D01*
X175367500Y-78280344D01*
X175373901Y-78339872D01*
X175373903Y-78339879D01*
X175424145Y-78474586D01*
X175424149Y-78474593D01*
X175510309Y-78589687D01*
X175510312Y-78589690D01*
X175625406Y-78675850D01*
X175625413Y-78675854D01*
X175760120Y-78726096D01*
X175760127Y-78726098D01*
X175819655Y-78732499D01*
X175819672Y-78732500D01*
X175967500Y-78732500D01*
X175967500Y-78256999D01*
X175970050Y-78248313D01*
X175968762Y-78239352D01*
X175979740Y-78215311D01*
X175987185Y-78189960D01*
X175994025Y-78184032D01*
X175997787Y-78175796D01*
X176020021Y-78161506D01*
X176039989Y-78144205D01*
X176050503Y-78141917D01*
X176056565Y-78138022D01*
X176091496Y-78132999D01*
X176133501Y-78132999D01*
X176200539Y-78152684D01*
X176246294Y-78205488D01*
X176257500Y-78256999D01*
X176257500Y-78732500D01*
X176405328Y-78732500D01*
X176405344Y-78732499D01*
X176464872Y-78726098D01*
X176464879Y-78726096D01*
X176599586Y-78675854D01*
X176599593Y-78675850D01*
X176714687Y-78589690D01*
X176714690Y-78589687D01*
X176800850Y-78474593D01*
X176800854Y-78474586D01*
X176851096Y-78339879D01*
X176851098Y-78339872D01*
X176857499Y-78280344D01*
X176857500Y-78280327D01*
X176857500Y-78212000D01*
X176860050Y-78203314D01*
X176858762Y-78194353D01*
X176869740Y-78170312D01*
X176877185Y-78144961D01*
X176884025Y-78139033D01*
X176887787Y-78130797D01*
X176910021Y-78116507D01*
X176929989Y-78099206D01*
X176940503Y-78096918D01*
X176946565Y-78093023D01*
X176981500Y-78088000D01*
X177217403Y-78088000D01*
X177284442Y-78107685D01*
X177305084Y-78124319D01*
X177333181Y-78152416D01*
X177366666Y-78213739D01*
X177369500Y-78240097D01*
X177369500Y-80585786D01*
X177349815Y-80652825D01*
X177297011Y-80698580D01*
X177227853Y-80708524D01*
X177185239Y-80692195D01*
X177184554Y-80693479D01*
X177179172Y-80690602D01*
X177033501Y-80630264D01*
X177033489Y-80630261D01*
X176878845Y-80599500D01*
X176878842Y-80599500D01*
X176721158Y-80599500D01*
X176721156Y-80599500D01*
X176566504Y-80630262D01*
X176566499Y-80630264D01*
X176545058Y-80639144D01*
X176539879Y-80641154D01*
X176123640Y-80792074D01*
X176081373Y-80799500D01*
X172320097Y-80799500D01*
X172290656Y-80790855D01*
X172260670Y-80784332D01*
X172255654Y-80780577D01*
X172253058Y-80779815D01*
X172232416Y-80763181D01*
X172146819Y-80677584D01*
X172113334Y-80616261D01*
X172110500Y-80589903D01*
X172110500Y-79766439D01*
X172130185Y-79699400D01*
X172182989Y-79653645D01*
X172252147Y-79643701D01*
X172315703Y-79672726D01*
X172350682Y-79723106D01*
X172373702Y-79784828D01*
X172373706Y-79784835D01*
X172459952Y-79900044D01*
X172459955Y-79900047D01*
X172575164Y-79986293D01*
X172575171Y-79986297D01*
X172710017Y-80036591D01*
X172710016Y-80036591D01*
X172716944Y-80037335D01*
X172769627Y-80043000D01*
X173855372Y-80042999D01*
X173914983Y-80036591D01*
X174049831Y-79986296D01*
X174165046Y-79900046D01*
X174251296Y-79784831D01*
X174301591Y-79649983D01*
X174308000Y-79590373D01*
X174307999Y-79144628D01*
X174301591Y-79085017D01*
X174287529Y-79047316D01*
X174251297Y-78950171D01*
X174251293Y-78950164D01*
X174165047Y-78834955D01*
X174165044Y-78834952D01*
X174049835Y-78748706D01*
X174049828Y-78748702D01*
X173967092Y-78717844D01*
X173911158Y-78675973D01*
X173886741Y-78610509D01*
X173887135Y-78588410D01*
X173888000Y-78580373D01*
X173887999Y-78194628D01*
X173881591Y-78135017D01*
X173880030Y-78130834D01*
X173875045Y-78061143D01*
X173880026Y-78044178D01*
X173881591Y-78039983D01*
X173888000Y-77980373D01*
X173887999Y-77594628D01*
X173881591Y-77535017D01*
X173880030Y-77530834D01*
X173875045Y-77461143D01*
X173880026Y-77444178D01*
X173881591Y-77439983D01*
X173888000Y-77380373D01*
X173887999Y-76994628D01*
X173881591Y-76935017D01*
X173881590Y-76935015D01*
X173881590Y-76935012D01*
X173879808Y-76927469D01*
X173881273Y-76927122D01*
X173876909Y-76866151D01*
X173881319Y-76851133D01*
X173881589Y-76849988D01*
X173881588Y-76849988D01*
X173881591Y-76849983D01*
X173888000Y-76790373D01*
X173887999Y-76404628D01*
X173881591Y-76345017D01*
X173880030Y-76340834D01*
X173875045Y-76271143D01*
X173880026Y-76254178D01*
X173881591Y-76249983D01*
X173888000Y-76190373D01*
X173887999Y-75804628D01*
X173881591Y-75745017D01*
X173878166Y-75735836D01*
X173873180Y-75666146D01*
X173878165Y-75649168D01*
X173881591Y-75639983D01*
X173888000Y-75580373D01*
X173887999Y-75194628D01*
X173881591Y-75135017D01*
X173880030Y-75130834D01*
X173875045Y-75061143D01*
X173880026Y-75044178D01*
X173881591Y-75039983D01*
X173888000Y-74980373D01*
X173887999Y-74594628D01*
X173881591Y-74535017D01*
X173881590Y-74535015D01*
X173881590Y-74535012D01*
X173879808Y-74527469D01*
X173881273Y-74527122D01*
X173876909Y-74466151D01*
X173881319Y-74451133D01*
X173881589Y-74449988D01*
X173881588Y-74449988D01*
X173881591Y-74449983D01*
X173888000Y-74390373D01*
X173887999Y-74004628D01*
X173887135Y-73996590D01*
X173899541Y-73927832D01*
X173947152Y-73876695D01*
X173967090Y-73867156D01*
X174049831Y-73836296D01*
X174165046Y-73750046D01*
X174251296Y-73634831D01*
X174301591Y-73499983D01*
X174308000Y-73440373D01*
X174307999Y-72994628D01*
X174301591Y-72935017D01*
X174284631Y-72889546D01*
X174251297Y-72800171D01*
X174251293Y-72800164D01*
X174165047Y-72684955D01*
X174165044Y-72684952D01*
X174049835Y-72598706D01*
X174049828Y-72598702D01*
X173914982Y-72548408D01*
X173914983Y-72548408D01*
X173855383Y-72542001D01*
X173855381Y-72542000D01*
X173855373Y-72542000D01*
X173855364Y-72542000D01*
X172769629Y-72542000D01*
X172769623Y-72542001D01*
X172710016Y-72548408D01*
X172575171Y-72598702D01*
X172575164Y-72598706D01*
X172459955Y-72684952D01*
X172459952Y-72684955D01*
X172373706Y-72800164D01*
X172373702Y-72800171D01*
X172323410Y-72935013D01*
X172323409Y-72935017D01*
X172317788Y-72987291D01*
X172291051Y-73051839D01*
X172233659Y-73091687D01*
X172163834Y-73094181D01*
X172103745Y-73058529D01*
X172072470Y-72996049D01*
X172070500Y-72974033D01*
X172070500Y-59599765D01*
X172090185Y-59532726D01*
X172091398Y-59530874D01*
X172179390Y-59399185D01*
X172179390Y-59399184D01*
X172179394Y-59399179D01*
X172239737Y-59253497D01*
X172257908Y-59162147D01*
X172266231Y-59120308D01*
X172280945Y-59092177D01*
X172294135Y-59063297D01*
X172297024Y-59061440D01*
X172298616Y-59058397D01*
X172326208Y-59042684D01*
X172352913Y-59025523D01*
X172357506Y-59024862D01*
X172359332Y-59023823D01*
X172387848Y-59020500D01*
X172459903Y-59020500D01*
X172526942Y-59040185D01*
G37*
G04 #@! TD.AperFunction*
G04 #@! TA.AperFunction,Conductor*
G36*
X170328279Y-59040185D02*
G01*
X170374034Y-59092989D01*
X170383978Y-59162147D01*
X170354953Y-59225703D01*
X170308692Y-59259061D01*
X170280827Y-59270602D01*
X170280814Y-59270609D01*
X170149711Y-59358210D01*
X170149707Y-59358213D01*
X170038213Y-59469707D01*
X170038210Y-59469711D01*
X169950609Y-59600814D01*
X169950602Y-59600827D01*
X169890264Y-59746498D01*
X169890261Y-59746510D01*
X169859500Y-59901153D01*
X169859500Y-60058846D01*
X169890261Y-60213489D01*
X169890264Y-60213501D01*
X169950602Y-60359172D01*
X169950609Y-60359185D01*
X170038602Y-60490874D01*
X170059480Y-60557551D01*
X170059500Y-60559765D01*
X170059500Y-61843330D01*
X170059499Y-61843348D01*
X170059499Y-62009054D01*
X170059498Y-62009054D01*
X170091729Y-62129339D01*
X170100423Y-62161785D01*
X170112530Y-62182754D01*
X170168837Y-62280282D01*
X170179479Y-62298714D01*
X170179481Y-62298717D01*
X170373181Y-62492417D01*
X170406666Y-62553740D01*
X170409500Y-62580098D01*
X170409500Y-63405500D01*
X170389815Y-63472539D01*
X170337011Y-63518294D01*
X170285500Y-63529500D01*
X170181155Y-63529500D01*
X170026510Y-63560261D01*
X170026498Y-63560264D01*
X169880827Y-63620602D01*
X169880814Y-63620609D01*
X169749711Y-63708210D01*
X169749707Y-63708213D01*
X169638213Y-63819707D01*
X169638210Y-63819711D01*
X169550609Y-63950814D01*
X169550602Y-63950827D01*
X169490264Y-64096498D01*
X169490261Y-64096510D01*
X169459500Y-64251153D01*
X169459500Y-64408846D01*
X169490261Y-64563489D01*
X169490264Y-64563501D01*
X169550602Y-64709172D01*
X169550609Y-64709185D01*
X169638602Y-64840874D01*
X169659480Y-64907551D01*
X169659500Y-64909765D01*
X169659500Y-66760191D01*
X169639815Y-66827230D01*
X169587011Y-66872985D01*
X169517853Y-66882929D01*
X169454297Y-66853904D01*
X169447819Y-66847872D01*
X168154673Y-65554726D01*
X168105078Y-65521588D01*
X168048127Y-65483535D01*
X167929744Y-65434499D01*
X167909474Y-65430467D01*
X167804071Y-65409500D01*
X167804069Y-65409500D01*
X162830398Y-65409500D01*
X162763359Y-65389815D01*
X162757069Y-65385494D01*
X162756384Y-65384992D01*
X162554060Y-65236621D01*
X162511641Y-65181104D01*
X162509684Y-65175631D01*
X162504575Y-65160213D01*
X162489814Y-65115666D01*
X162397712Y-64966344D01*
X162273656Y-64842288D01*
X162124334Y-64750186D01*
X161957797Y-64695001D01*
X161957795Y-64695000D01*
X161855010Y-64684500D01*
X161129998Y-64684500D01*
X161129980Y-64684501D01*
X161027203Y-64695000D01*
X161027200Y-64695001D01*
X160860668Y-64750185D01*
X160860663Y-64750187D01*
X160711342Y-64842289D01*
X160587289Y-64966342D01*
X160495187Y-65115663D01*
X160495185Y-65115668D01*
X160473502Y-65181104D01*
X160440001Y-65282203D01*
X160440001Y-65282204D01*
X160440000Y-65282204D01*
X160429500Y-65384983D01*
X160429500Y-66735001D01*
X160429501Y-66735018D01*
X160440000Y-66837796D01*
X160440001Y-66837799D01*
X160495185Y-67004331D01*
X160495186Y-67004334D01*
X160587288Y-67153656D01*
X160711344Y-67277712D01*
X160860666Y-67369814D01*
X161027203Y-67424999D01*
X161129991Y-67435500D01*
X161855008Y-67435499D01*
X161855016Y-67435498D01*
X161855019Y-67435498D01*
X161911302Y-67429748D01*
X161957797Y-67424999D01*
X162124334Y-67369814D01*
X162273656Y-67277712D01*
X162397712Y-67153656D01*
X162489814Y-67004334D01*
X162509684Y-66944366D01*
X162549454Y-66886923D01*
X162554045Y-66883387D01*
X162630625Y-66827230D01*
X162757071Y-66734505D01*
X162822773Y-66710735D01*
X162830399Y-66710500D01*
X167419192Y-66710500D01*
X167486231Y-66730185D01*
X167506873Y-66746819D01*
X168693181Y-67933127D01*
X168726666Y-67994450D01*
X168729500Y-68020808D01*
X168729500Y-71391433D01*
X168709815Y-71458472D01*
X168657011Y-71504227D01*
X168587853Y-71514171D01*
X168558048Y-71505995D01*
X168519887Y-71490189D01*
X168423497Y-71450263D01*
X168423492Y-71450262D01*
X168423489Y-71450261D01*
X168268845Y-71419500D01*
X168268842Y-71419500D01*
X168111158Y-71419500D01*
X168111155Y-71419500D01*
X167956510Y-71450261D01*
X167956498Y-71450264D01*
X167810827Y-71510602D01*
X167810814Y-71510609D01*
X167679711Y-71598210D01*
X167679707Y-71598213D01*
X167568213Y-71709707D01*
X167568210Y-71709711D01*
X167480609Y-71840814D01*
X167480602Y-71840827D01*
X167420264Y-71986498D01*
X167420261Y-71986510D01*
X167389500Y-72141153D01*
X167389500Y-72298845D01*
X167391665Y-72309730D01*
X167393663Y-72335554D01*
X167393771Y-72335551D01*
X167393837Y-72337808D01*
X167393938Y-72339103D01*
X167393901Y-72339968D01*
X167393902Y-72339991D01*
X167434453Y-72740543D01*
X167434488Y-72740875D01*
X167434801Y-72743966D01*
X167434801Y-72743971D01*
X167446006Y-72854637D01*
X167448657Y-72875039D01*
X167448814Y-72876523D01*
X167448698Y-72877157D01*
X167449500Y-72889546D01*
X167449500Y-74950868D01*
X167446669Y-74977213D01*
X167445010Y-74984842D01*
X167445009Y-74984845D01*
X167416291Y-75386887D01*
X167416739Y-75464709D01*
X167416739Y-75464712D01*
X167417035Y-75468274D01*
X167417634Y-75472285D01*
X167417292Y-75472336D01*
X167419500Y-75492933D01*
X167419500Y-75834697D01*
X167422356Y-75870991D01*
X167422357Y-75870997D01*
X167467504Y-76026390D01*
X167467507Y-76026398D01*
X167469788Y-76030255D01*
X167477400Y-76045405D01*
X167479438Y-76050265D01*
X167480660Y-76054047D01*
X167483212Y-76059262D01*
X167484608Y-76062589D01*
X167488113Y-76093881D01*
X167493425Y-76124916D01*
X167492163Y-76130032D01*
X167492387Y-76132024D01*
X167490964Y-76134896D01*
X167485991Y-76155077D01*
X167485110Y-76157367D01*
X167479639Y-76168672D01*
X167477507Y-76173602D01*
X167432357Y-76329005D01*
X167432356Y-76329008D01*
X167429500Y-76365302D01*
X167429500Y-76476000D01*
X167409815Y-76543039D01*
X167357011Y-76588794D01*
X167305500Y-76600000D01*
X167250000Y-76600000D01*
X167250000Y-76726000D01*
X167230315Y-76793039D01*
X167177511Y-76838794D01*
X167126000Y-76850000D01*
X166471210Y-76850000D01*
X166472855Y-76870913D01*
X166513526Y-77010905D01*
X166513327Y-77080775D01*
X166475385Y-77139445D01*
X166411746Y-77168288D01*
X166394450Y-77169500D01*
X162950098Y-77169500D01*
X162883059Y-77149815D01*
X162862417Y-77133181D01*
X161579236Y-75850000D01*
X166461210Y-75850000D01*
X166462854Y-75870910D01*
X166507967Y-76026193D01*
X166519286Y-76045331D01*
X166536469Y-76113055D01*
X166520773Y-76166512D01*
X166521068Y-76166640D01*
X166520034Y-76169027D01*
X166519289Y-76171568D01*
X166517972Y-76173794D01*
X166517967Y-76173806D01*
X166472855Y-76329081D01*
X166472854Y-76329087D01*
X166471209Y-76349999D01*
X166471210Y-76350000D01*
X166990000Y-76350000D01*
X166990000Y-75850000D01*
X166461210Y-75850000D01*
X161579236Y-75850000D01*
X161386819Y-75657583D01*
X161372115Y-75630655D01*
X161355523Y-75604837D01*
X161354631Y-75598636D01*
X161353334Y-75596260D01*
X161350500Y-75569902D01*
X161350500Y-75349999D01*
X166461209Y-75349999D01*
X166461210Y-75350000D01*
X166990000Y-75350000D01*
X166990000Y-74795494D01*
X166989998Y-74795493D01*
X166843809Y-74837965D01*
X166843806Y-74837967D01*
X166704625Y-74920278D01*
X166704616Y-74920285D01*
X166590285Y-75034616D01*
X166590278Y-75034625D01*
X166507968Y-75173804D01*
X166507966Y-75173809D01*
X166462855Y-75329081D01*
X166462854Y-75329087D01*
X166461209Y-75349999D01*
X161350500Y-75349999D01*
X161350500Y-69948622D01*
X161357926Y-69906355D01*
X161361406Y-69896757D01*
X161508842Y-69490120D01*
X161510851Y-69484946D01*
X161519737Y-69463497D01*
X161521040Y-69456945D01*
X161524602Y-69443204D01*
X161526238Y-69438118D01*
X161526707Y-69436450D01*
X161543419Y-69346279D01*
X161543418Y-69346275D01*
X161544630Y-69339741D01*
X161545175Y-69335608D01*
X161550500Y-69308842D01*
X161550500Y-69151158D01*
X161550500Y-69151155D01*
X161550499Y-69151153D01*
X161536346Y-69080000D01*
X161519737Y-68996503D01*
X161493663Y-68933554D01*
X161459397Y-68850827D01*
X161459390Y-68850814D01*
X161371789Y-68719711D01*
X161371786Y-68719707D01*
X161260292Y-68608213D01*
X161260288Y-68608210D01*
X161129185Y-68520609D01*
X161129172Y-68520602D01*
X160983501Y-68460264D01*
X160983489Y-68460261D01*
X160828845Y-68429500D01*
X160828842Y-68429500D01*
X160671158Y-68429500D01*
X160671155Y-68429500D01*
X160516510Y-68460261D01*
X160516498Y-68460264D01*
X160370827Y-68520602D01*
X160370814Y-68520609D01*
X160239711Y-68608210D01*
X160239706Y-68608214D01*
X160209015Y-68638905D01*
X160201572Y-68642968D01*
X160196552Y-68649805D01*
X160171365Y-68659463D01*
X160147691Y-68672390D01*
X160139231Y-68671784D01*
X160131314Y-68674821D01*
X160104905Y-68669328D01*
X160078000Y-68667404D01*
X160071211Y-68662321D01*
X160062908Y-68660595D01*
X160043661Y-68641697D01*
X160022067Y-68625532D01*
X160019103Y-68617585D01*
X160013052Y-68611644D01*
X160007076Y-68585340D01*
X159997651Y-68560067D01*
X159999050Y-68550005D01*
X159997575Y-68543510D01*
X160004760Y-68508960D01*
X160018842Y-68470120D01*
X160020851Y-68464946D01*
X160029737Y-68443497D01*
X160031040Y-68436945D01*
X160034602Y-68423204D01*
X160036238Y-68418118D01*
X160036707Y-68416450D01*
X160053419Y-68326279D01*
X160053418Y-68326275D01*
X160054630Y-68319741D01*
X160055175Y-68315608D01*
X160058400Y-68299395D01*
X160060500Y-68288844D01*
X160060500Y-68131155D01*
X160060499Y-68131153D01*
X160029738Y-67976510D01*
X160029737Y-67976503D01*
X159986633Y-67872439D01*
X159969397Y-67830827D01*
X159969390Y-67830814D01*
X159881789Y-67699711D01*
X159881786Y-67699707D01*
X159770292Y-67588213D01*
X159770288Y-67588210D01*
X159639185Y-67500609D01*
X159639172Y-67500602D01*
X159493501Y-67440264D01*
X159493491Y-67440261D01*
X159464633Y-67434521D01*
X159402722Y-67402136D01*
X159368148Y-67341420D01*
X159371889Y-67271650D01*
X159401140Y-67225227D01*
X159472712Y-67153656D01*
X159564814Y-67004334D01*
X159619999Y-66837797D01*
X159630500Y-66735009D01*
X159630499Y-65384992D01*
X159619999Y-65282203D01*
X159564814Y-65115666D01*
X159472712Y-64966344D01*
X159348656Y-64842288D01*
X159199334Y-64750186D01*
X159032797Y-64695001D01*
X159032795Y-64695000D01*
X158930010Y-64684500D01*
X158204998Y-64684500D01*
X158204980Y-64684501D01*
X158102203Y-64695000D01*
X158102200Y-64695001D01*
X157935668Y-64750185D01*
X157935663Y-64750187D01*
X157786345Y-64842287D01*
X157662284Y-64966347D01*
X157662283Y-64966348D01*
X157653884Y-64979965D01*
X157651575Y-64982041D01*
X157650612Y-64984993D01*
X157625766Y-65005252D01*
X157601934Y-65026687D01*
X157598145Y-65027775D01*
X157596463Y-65029148D01*
X157563814Y-65037643D01*
X157562316Y-65038074D01*
X157561633Y-65038151D01*
X157397083Y-65056435D01*
X157381725Y-65058545D01*
X157380264Y-65058711D01*
X157379580Y-65058591D01*
X157366297Y-65059500D01*
X156717495Y-65059500D01*
X156689356Y-65056265D01*
X156611285Y-65038074D01*
X155764855Y-64840849D01*
X155704032Y-64806466D01*
X155671454Y-64744656D01*
X155677464Y-64675046D01*
X155720154Y-64619735D01*
X155737458Y-64609217D01*
X156606664Y-64173875D01*
X156726951Y-64113629D01*
X156782481Y-64100500D01*
X158360600Y-64100500D01*
X158376347Y-64104774D01*
X158390618Y-64104188D01*
X158423298Y-64117519D01*
X158519458Y-64173875D01*
X158544441Y-64193175D01*
X158552396Y-64201130D01*
X158552400Y-64201133D01*
X158552402Y-64201135D01*
X158690607Y-64282869D01*
X158690614Y-64282871D01*
X158844791Y-64327664D01*
X158844794Y-64327664D01*
X158844796Y-64327665D01*
X158880819Y-64330500D01*
X159279180Y-64330499D01*
X159315204Y-64327665D01*
X159469393Y-64282869D01*
X159526882Y-64248869D01*
X159594602Y-64231688D01*
X159653117Y-64248869D01*
X159710607Y-64282869D01*
X159710610Y-64282869D01*
X159710612Y-64282871D01*
X159864791Y-64327664D01*
X159864794Y-64327664D01*
X159864796Y-64327665D01*
X159900819Y-64330500D01*
X160299180Y-64330499D01*
X160335204Y-64327665D01*
X160489393Y-64282869D01*
X160498018Y-64277767D01*
X160561139Y-64260500D01*
X165142672Y-64260500D01*
X165170355Y-64263630D01*
X165172376Y-64264092D01*
X165174901Y-64264671D01*
X165174909Y-64264671D01*
X165174911Y-64264672D01*
X165689466Y-64307161D01*
X165689471Y-64307161D01*
X165689504Y-64307164D01*
X165701982Y-64307890D01*
X165718959Y-64310062D01*
X165721158Y-64310500D01*
X165721159Y-64310500D01*
X165878844Y-64310500D01*
X165878845Y-64310499D01*
X166033497Y-64279737D01*
X166179179Y-64219394D01*
X166310289Y-64131789D01*
X166421789Y-64020289D01*
X166509394Y-63889179D01*
X166569737Y-63743497D01*
X166600500Y-63588842D01*
X166600500Y-63431158D01*
X166600500Y-63431155D01*
X166600499Y-63431153D01*
X166569738Y-63276510D01*
X166569737Y-63276503D01*
X166509586Y-63131284D01*
X166509397Y-63130827D01*
X166509390Y-63130814D01*
X166421789Y-62999711D01*
X166421786Y-62999707D01*
X166310292Y-62888213D01*
X166310288Y-62888210D01*
X166179185Y-62800609D01*
X166179172Y-62800602D01*
X166033501Y-62740264D01*
X166033489Y-62740261D01*
X165878845Y-62709500D01*
X165878842Y-62709500D01*
X165721158Y-62709500D01*
X165721152Y-62709500D01*
X165716560Y-62710414D01*
X165693734Y-62712789D01*
X165689490Y-62712835D01*
X165174899Y-62755327D01*
X165146020Y-62758675D01*
X165131743Y-62759500D01*
X160924500Y-62759500D01*
X160857461Y-62739815D01*
X160811706Y-62687011D01*
X160800500Y-62635500D01*
X160800500Y-61381932D01*
X160805424Y-61347336D01*
X160817665Y-61305204D01*
X160820500Y-61269181D01*
X160820499Y-60770820D01*
X160817665Y-60734796D01*
X160772869Y-60580607D01*
X160691135Y-60442402D01*
X160691133Y-60442400D01*
X160691130Y-60442396D01*
X160577603Y-60328869D01*
X160577595Y-60328863D01*
X160439393Y-60247131D01*
X160439388Y-60247129D01*
X160285208Y-60202335D01*
X160285202Y-60202334D01*
X160249181Y-60199500D01*
X159850830Y-60199500D01*
X159850808Y-60199501D01*
X159814794Y-60202335D01*
X159660611Y-60247129D01*
X159660604Y-60247132D01*
X159603119Y-60281128D01*
X159535395Y-60298309D01*
X159476881Y-60281128D01*
X159419395Y-60247132D01*
X159419388Y-60247129D01*
X159265208Y-60202335D01*
X159265202Y-60202334D01*
X159229181Y-60199500D01*
X158830830Y-60199500D01*
X158830808Y-60199501D01*
X158794794Y-60202335D01*
X158640611Y-60247129D01*
X158640605Y-60247131D01*
X158502400Y-60328865D01*
X158496241Y-60333643D01*
X158495932Y-60333245D01*
X158477638Y-60347112D01*
X158377102Y-60403603D01*
X158316359Y-60419500D01*
X156794541Y-60419500D01*
X156734751Y-60404133D01*
X156653060Y-60359172D01*
X155665369Y-59815566D01*
X155664214Y-59814977D01*
X155664095Y-59814865D01*
X155663641Y-59814615D01*
X155663705Y-59814497D01*
X155660145Y-59811134D01*
X155654756Y-59809623D01*
X155647960Y-59805037D01*
X155647815Y-59804948D01*
X155639057Y-59800486D01*
X155588260Y-59752512D01*
X155571464Y-59684692D01*
X155594000Y-59618556D01*
X155639058Y-59579514D01*
X155647803Y-59575058D01*
X155647806Y-59575055D01*
X155647816Y-59575051D01*
X155647824Y-59575044D01*
X155651632Y-59572711D01*
X155660897Y-59567563D01*
X156553887Y-59120308D01*
X156726951Y-59033629D01*
X156782481Y-59020500D01*
X170261240Y-59020500D01*
X170328279Y-59040185D01*
G37*
G04 #@! TD.AperFunction*
G04 #@! TA.AperFunction,Conductor*
G36*
X186132539Y-45605185D02*
G01*
X186178294Y-45657989D01*
X186189500Y-45709500D01*
X186189500Y-87005500D01*
X186169815Y-87072539D01*
X186117011Y-87118294D01*
X186065500Y-87129500D01*
X146674500Y-87129500D01*
X146607461Y-87109815D01*
X146561706Y-87057011D01*
X146550500Y-87005500D01*
X146550500Y-82169054D01*
X148879498Y-82169054D01*
X148920423Y-82321784D01*
X148920424Y-82321787D01*
X148926198Y-82331787D01*
X148926199Y-82331789D01*
X148999477Y-82458712D01*
X148999481Y-82458717D01*
X149118349Y-82577585D01*
X149118355Y-82577590D01*
X152375139Y-85834374D01*
X152375149Y-85834385D01*
X152379479Y-85838715D01*
X152379480Y-85838716D01*
X152491284Y-85950520D01*
X152578095Y-86000639D01*
X152578097Y-86000641D01*
X152616151Y-86022611D01*
X152628215Y-86029577D01*
X152780943Y-86070501D01*
X152780946Y-86070501D01*
X152946653Y-86070501D01*
X152946669Y-86070500D01*
X180533331Y-86070500D01*
X180533347Y-86070501D01*
X180540943Y-86070501D01*
X180699054Y-86070501D01*
X180699057Y-86070501D01*
X180851785Y-86029577D01*
X180901904Y-86000639D01*
X180988716Y-85950520D01*
X181100520Y-85838716D01*
X181100520Y-85838714D01*
X181110728Y-85828507D01*
X181110730Y-85828504D01*
X184956213Y-81983021D01*
X184956216Y-81983020D01*
X185068020Y-81871216D01*
X185118139Y-81784404D01*
X185147077Y-81734285D01*
X185188000Y-81581558D01*
X185188000Y-81423443D01*
X185188000Y-78166722D01*
X185207685Y-78099683D01*
X185260489Y-78053928D01*
X185277405Y-78047646D01*
X185346644Y-78027529D01*
X185435398Y-78001744D01*
X185576865Y-77918081D01*
X185693081Y-77801865D01*
X185776744Y-77660398D01*
X185822598Y-77502569D01*
X185825500Y-77465694D01*
X185825500Y-77034306D01*
X185822598Y-76997431D01*
X185821782Y-76994623D01*
X185776745Y-76839606D01*
X185776744Y-76839603D01*
X185776744Y-76839602D01*
X185693081Y-76698135D01*
X185693079Y-76698133D01*
X185693076Y-76698129D01*
X185576870Y-76581923D01*
X185576862Y-76581917D01*
X185435396Y-76498255D01*
X185435393Y-76498254D01*
X185277573Y-76452402D01*
X185277567Y-76452401D01*
X185240701Y-76449500D01*
X185240694Y-76449500D01*
X184074500Y-76449500D01*
X184065814Y-76446949D01*
X184056853Y-76448238D01*
X184032812Y-76437259D01*
X184007461Y-76429815D01*
X184001533Y-76422974D01*
X183993297Y-76419213D01*
X183979007Y-76396978D01*
X183961706Y-76377011D01*
X183959418Y-76366496D01*
X183955523Y-76360435D01*
X183950500Y-76325500D01*
X183950500Y-76274000D01*
X183970185Y-76206961D01*
X184022989Y-76161206D01*
X184074500Y-76150000D01*
X184337500Y-76150000D01*
X184837500Y-76150000D01*
X185240634Y-76150000D01*
X185240649Y-76149999D01*
X185277489Y-76147100D01*
X185277495Y-76147099D01*
X185435193Y-76101283D01*
X185435196Y-76101282D01*
X185576552Y-76017685D01*
X185576561Y-76017678D01*
X185692678Y-75901561D01*
X185692685Y-75901552D01*
X185776281Y-75760198D01*
X185822100Y-75602486D01*
X185822295Y-75600001D01*
X185822295Y-75600000D01*
X184837500Y-75600000D01*
X184837500Y-76150000D01*
X184337500Y-76150000D01*
X184337500Y-75600000D01*
X183681815Y-75600000D01*
X183618694Y-75582732D01*
X183597752Y-75570347D01*
X183560398Y-75548256D01*
X183560397Y-75548255D01*
X183560396Y-75548255D01*
X183560393Y-75548254D01*
X183402573Y-75502402D01*
X183402567Y-75502401D01*
X183365701Y-75499500D01*
X183365694Y-75499500D01*
X182059306Y-75499500D01*
X182059298Y-75499500D01*
X182022432Y-75502401D01*
X181937429Y-75527097D01*
X181926362Y-75529768D01*
X181897666Y-75535313D01*
X181714980Y-75598636D01*
X181595178Y-75640161D01*
X181554570Y-75647000D01*
X177641596Y-75647000D01*
X177620350Y-75640761D01*
X177598263Y-75639182D01*
X177587479Y-75631109D01*
X177574557Y-75627315D01*
X177560058Y-75610583D01*
X177542329Y-75597311D01*
X177537621Y-75584688D01*
X177528802Y-75574511D01*
X177525650Y-75552595D01*
X177517912Y-75531847D01*
X177520774Y-75518685D01*
X177518858Y-75505353D01*
X177528056Y-75485211D01*
X177532763Y-75463574D01*
X177546034Y-75445845D01*
X177547883Y-75441797D01*
X177553900Y-75435333D01*
X177628509Y-75360724D01*
X177628514Y-75360721D01*
X177638714Y-75350520D01*
X177638716Y-75350520D01*
X177750520Y-75238716D01*
X177829577Y-75101784D01*
X177830056Y-75099998D01*
X183352704Y-75099998D01*
X183352705Y-75100000D01*
X184337500Y-75100000D01*
X184837500Y-75100000D01*
X185822295Y-75100000D01*
X185822295Y-75099998D01*
X185822100Y-75097513D01*
X185776281Y-74939801D01*
X185692685Y-74798447D01*
X185692678Y-74798438D01*
X185576561Y-74682321D01*
X185576552Y-74682314D01*
X185435196Y-74598717D01*
X185435193Y-74598716D01*
X185277495Y-74552900D01*
X185277489Y-74552899D01*
X185240649Y-74550000D01*
X184837500Y-74550000D01*
X184837500Y-75100000D01*
X184337500Y-75100000D01*
X184337500Y-74550000D01*
X183934350Y-74550000D01*
X183897510Y-74552899D01*
X183897504Y-74552900D01*
X183739806Y-74598716D01*
X183739803Y-74598717D01*
X183598447Y-74682314D01*
X183598438Y-74682321D01*
X183482321Y-74798438D01*
X183482314Y-74798447D01*
X183398718Y-74939801D01*
X183352899Y-75097513D01*
X183352704Y-75099998D01*
X177830056Y-75099998D01*
X177865419Y-74968020D01*
X177870500Y-74949058D01*
X177870500Y-74790943D01*
X177870500Y-72729059D01*
X177870501Y-72729046D01*
X177870501Y-72560945D01*
X177870501Y-72560943D01*
X177829577Y-72408215D01*
X177779197Y-72320955D01*
X177750520Y-72271284D01*
X177638716Y-72159480D01*
X177638715Y-72159479D01*
X177634385Y-72155149D01*
X177634374Y-72155139D01*
X174736819Y-69257584D01*
X174703334Y-69196261D01*
X174700500Y-69169903D01*
X174700500Y-60100097D01*
X174720185Y-60033058D01*
X174736819Y-60012416D01*
X175692417Y-59056819D01*
X175719344Y-59042115D01*
X175745163Y-59025523D01*
X175751363Y-59024631D01*
X175753740Y-59023334D01*
X175780098Y-59020500D01*
X175957519Y-59020500D01*
X176013049Y-59033629D01*
X176072284Y-59063297D01*
X177079105Y-59567566D01*
X177088357Y-59572706D01*
X177092175Y-59575046D01*
X177092182Y-59575049D01*
X177092184Y-59575051D01*
X177100945Y-59579515D01*
X177151740Y-59627487D01*
X177168536Y-59695307D01*
X177146000Y-59761443D01*
X177100953Y-59800480D01*
X177092181Y-59804950D01*
X176920213Y-59929890D01*
X176769890Y-60080213D01*
X176644951Y-60252179D01*
X176548444Y-60441585D01*
X176482753Y-60643760D01*
X176449500Y-60853713D01*
X176449500Y-61066286D01*
X176481636Y-61269188D01*
X176482754Y-61276243D01*
X176492164Y-61305205D01*
X176548444Y-61478414D01*
X176644951Y-61667820D01*
X176769890Y-61839786D01*
X176920213Y-61990109D01*
X177092182Y-62115050D01*
X177100946Y-62119516D01*
X177151742Y-62167491D01*
X177168536Y-62235312D01*
X177145998Y-62301447D01*
X177100946Y-62340484D01*
X177092182Y-62344949D01*
X176920213Y-62469890D01*
X176769890Y-62620213D01*
X176644951Y-62792179D01*
X176548444Y-62981585D01*
X176482753Y-63183760D01*
X176468065Y-63276498D01*
X176449500Y-63393713D01*
X176449500Y-63606287D01*
X176459534Y-63669644D01*
X176476263Y-63775264D01*
X176482754Y-63816243D01*
X176526483Y-63950827D01*
X176548444Y-64018414D01*
X176644951Y-64207820D01*
X176769890Y-64379786D01*
X176920213Y-64530109D01*
X177092182Y-64655050D01*
X177100946Y-64659516D01*
X177151742Y-64707491D01*
X177168536Y-64775312D01*
X177145998Y-64841447D01*
X177100946Y-64880484D01*
X177092182Y-64884949D01*
X176920213Y-65009890D01*
X176769890Y-65160213D01*
X176644951Y-65332179D01*
X176548444Y-65521585D01*
X176482753Y-65723760D01*
X176449500Y-65933713D01*
X176449500Y-66146286D01*
X176482753Y-66356239D01*
X176548444Y-66558414D01*
X176644951Y-66747820D01*
X176769890Y-66919786D01*
X176920213Y-67070109D01*
X177092179Y-67195048D01*
X177092181Y-67195049D01*
X177092184Y-67195051D01*
X177101493Y-67199794D01*
X177152290Y-67247766D01*
X177169087Y-67315587D01*
X177146552Y-67381722D01*
X177101505Y-67420760D01*
X177092446Y-67425376D01*
X177092440Y-67425380D01*
X177038282Y-67464727D01*
X177038282Y-67464728D01*
X177670591Y-68097037D01*
X177607007Y-68114075D01*
X177492993Y-68179901D01*
X177399901Y-68272993D01*
X177334075Y-68387007D01*
X177317037Y-68450591D01*
X176684728Y-67818282D01*
X176684727Y-67818282D01*
X176645380Y-67872439D01*
X176548904Y-68061782D01*
X176483242Y-68263869D01*
X176483242Y-68263872D01*
X176450000Y-68473753D01*
X176450000Y-68686246D01*
X176483242Y-68896127D01*
X176483242Y-68896130D01*
X176548904Y-69098217D01*
X176645375Y-69287550D01*
X176684728Y-69341716D01*
X177317037Y-68709408D01*
X177334075Y-68772993D01*
X177399901Y-68887007D01*
X177492993Y-68980099D01*
X177607007Y-69045925D01*
X177670590Y-69062962D01*
X177038282Y-69695269D01*
X177038282Y-69695270D01*
X177092449Y-69734624D01*
X177281782Y-69831095D01*
X177483870Y-69896757D01*
X177693754Y-69930000D01*
X177906246Y-69930000D01*
X178116127Y-69896757D01*
X178116130Y-69896757D01*
X178318217Y-69831095D01*
X178507554Y-69734622D01*
X178561716Y-69695270D01*
X178561717Y-69695270D01*
X177929408Y-69062962D01*
X177992993Y-69045925D01*
X178107007Y-68980099D01*
X178200099Y-68887007D01*
X178265925Y-68772993D01*
X178282962Y-68709408D01*
X178915270Y-69341717D01*
X178915270Y-69341716D01*
X178954622Y-69287554D01*
X179051095Y-69098217D01*
X179116757Y-68896130D01*
X179116757Y-68896127D01*
X179150000Y-68686246D01*
X179150000Y-68473753D01*
X179116757Y-68263872D01*
X179116757Y-68263869D01*
X179051095Y-68061782D01*
X178954624Y-67872449D01*
X178915270Y-67818282D01*
X178915269Y-67818282D01*
X178282962Y-68450590D01*
X178265925Y-68387007D01*
X178200099Y-68272993D01*
X178107007Y-68179901D01*
X177992993Y-68114075D01*
X177929409Y-68097037D01*
X178561716Y-67464728D01*
X178507547Y-67425373D01*
X178507547Y-67425372D01*
X178498500Y-67420763D01*
X178447706Y-67372788D01*
X178430912Y-67304966D01*
X178453451Y-67238832D01*
X178498508Y-67199793D01*
X178507816Y-67195051D01*
X178587007Y-67137515D01*
X178679786Y-67070109D01*
X178679788Y-67070106D01*
X178679792Y-67070104D01*
X178830104Y-66919792D01*
X178830106Y-66919788D01*
X178830109Y-66919786D01*
X178955048Y-66747820D01*
X178955047Y-66747820D01*
X178955051Y-66747816D01*
X179051557Y-66558412D01*
X179117246Y-66356243D01*
X179150500Y-66146287D01*
X179150500Y-65933713D01*
X179117246Y-65723757D01*
X179051557Y-65521588D01*
X178955051Y-65332184D01*
X178955049Y-65332181D01*
X178955048Y-65332179D01*
X178830109Y-65160213D01*
X178679786Y-65009890D01*
X178507820Y-64884951D01*
X178507115Y-64884591D01*
X178499054Y-64880485D01*
X178448259Y-64832512D01*
X178431463Y-64764692D01*
X178453999Y-64698556D01*
X178499054Y-64659515D01*
X178507816Y-64655051D01*
X178633825Y-64563501D01*
X178679786Y-64530109D01*
X178679788Y-64530106D01*
X178679792Y-64530104D01*
X178830104Y-64379792D01*
X178830106Y-64379788D01*
X178830109Y-64379786D01*
X178955048Y-64207820D01*
X178955047Y-64207820D01*
X178955051Y-64207816D01*
X179051557Y-64018412D01*
X179117246Y-63816243D01*
X179150500Y-63606287D01*
X179150500Y-63393713D01*
X179117246Y-63183757D01*
X179051557Y-62981588D01*
X178955051Y-62792184D01*
X178955049Y-62792181D01*
X178955048Y-62792179D01*
X178830109Y-62620213D01*
X178679786Y-62469890D01*
X178507820Y-62344951D01*
X178507115Y-62344591D01*
X178499054Y-62340485D01*
X178448259Y-62292512D01*
X178431463Y-62224692D01*
X178453999Y-62158556D01*
X178499054Y-62119515D01*
X178507816Y-62115051D01*
X178529789Y-62099086D01*
X178679786Y-61990109D01*
X178679788Y-61990106D01*
X178679792Y-61990104D01*
X178830104Y-61839792D01*
X178830106Y-61839788D01*
X178830109Y-61839786D01*
X178955048Y-61667820D01*
X178955047Y-61667820D01*
X178955051Y-61667816D01*
X179051557Y-61478412D01*
X179117246Y-61276243D01*
X179150500Y-61066287D01*
X179150500Y-60853713D01*
X179117246Y-60643757D01*
X179051557Y-60441588D01*
X178955051Y-60252184D01*
X178955049Y-60252181D01*
X178955048Y-60252179D01*
X178830109Y-60080213D01*
X178679786Y-59929890D01*
X178507820Y-59804951D01*
X178507115Y-59804591D01*
X178499054Y-59800485D01*
X178448259Y-59752512D01*
X178431463Y-59684692D01*
X178453999Y-59618556D01*
X178499054Y-59579515D01*
X178507816Y-59575051D01*
X178569426Y-59530289D01*
X178679786Y-59450109D01*
X178679788Y-59450106D01*
X178679792Y-59450104D01*
X178830104Y-59299792D01*
X178830106Y-59299788D01*
X178830109Y-59299786D01*
X178955048Y-59127820D01*
X178955047Y-59127820D01*
X178955051Y-59127816D01*
X179051557Y-58938412D01*
X179117246Y-58736243D01*
X179150500Y-58526287D01*
X179150500Y-58313713D01*
X179117246Y-58103757D01*
X179051557Y-57901588D01*
X178955051Y-57712184D01*
X178955049Y-57712181D01*
X178955048Y-57712179D01*
X178830109Y-57540213D01*
X178679786Y-57389890D01*
X178507820Y-57264951D01*
X178507115Y-57264591D01*
X178499054Y-57260485D01*
X178448259Y-57212512D01*
X178431463Y-57144692D01*
X178453999Y-57078556D01*
X178499054Y-57039515D01*
X178507816Y-57035051D01*
X178529789Y-57019086D01*
X178679786Y-56910109D01*
X178679788Y-56910106D01*
X178679792Y-56910104D01*
X178830104Y-56759792D01*
X178830106Y-56759788D01*
X178830109Y-56759786D01*
X178955048Y-56587820D01*
X178955047Y-56587820D01*
X178955051Y-56587816D01*
X179051557Y-56398412D01*
X179117246Y-56196243D01*
X179150500Y-55986287D01*
X179150500Y-55773713D01*
X179117246Y-55563757D01*
X179051557Y-55361588D01*
X178955051Y-55172184D01*
X178955049Y-55172181D01*
X178955048Y-55172179D01*
X178830109Y-55000213D01*
X178679786Y-54849890D01*
X178507820Y-54724951D01*
X178507115Y-54724591D01*
X178499054Y-54720485D01*
X178448259Y-54672512D01*
X178431463Y-54604692D01*
X178453999Y-54538556D01*
X178499054Y-54499515D01*
X178507816Y-54495051D01*
X178565407Y-54453209D01*
X178679786Y-54370109D01*
X178679788Y-54370106D01*
X178679792Y-54370104D01*
X178830104Y-54219792D01*
X178830106Y-54219788D01*
X178830109Y-54219786D01*
X178955048Y-54047820D01*
X178955047Y-54047820D01*
X178955051Y-54047816D01*
X179051557Y-53858412D01*
X179117246Y-53656243D01*
X179150500Y-53446287D01*
X179150500Y-53233713D01*
X179117246Y-53023757D01*
X179051557Y-52821588D01*
X178955051Y-52632184D01*
X178955049Y-52632181D01*
X178955048Y-52632179D01*
X178830109Y-52460213D01*
X178716569Y-52346673D01*
X178683084Y-52285350D01*
X178688068Y-52215658D01*
X178729940Y-52159725D01*
X178760915Y-52142810D01*
X178892331Y-52093796D01*
X179007546Y-52007546D01*
X179093796Y-51892331D01*
X179144091Y-51757483D01*
X179150500Y-51697873D01*
X179150499Y-49902128D01*
X179144091Y-49842517D01*
X179093796Y-49707669D01*
X179093795Y-49707668D01*
X179093793Y-49707664D01*
X179007547Y-49592455D01*
X179007544Y-49592452D01*
X178892335Y-49506206D01*
X178892328Y-49506202D01*
X178757482Y-49455908D01*
X178757483Y-49455908D01*
X178697883Y-49449501D01*
X178697881Y-49449500D01*
X178697873Y-49449500D01*
X178697864Y-49449500D01*
X176902129Y-49449500D01*
X176902123Y-49449501D01*
X176842516Y-49455908D01*
X176707671Y-49506202D01*
X176707664Y-49506206D01*
X176592455Y-49592452D01*
X176592452Y-49592455D01*
X176506206Y-49707664D01*
X176506202Y-49707671D01*
X176455908Y-49842517D01*
X176449501Y-49902116D01*
X176449501Y-49902123D01*
X176449500Y-49902135D01*
X176449500Y-51697870D01*
X176449501Y-51697876D01*
X176455908Y-51757483D01*
X176506202Y-51892328D01*
X176506206Y-51892335D01*
X176592452Y-52007544D01*
X176592455Y-52007547D01*
X176707664Y-52093793D01*
X176707671Y-52093797D01*
X176839082Y-52142810D01*
X176895016Y-52184681D01*
X176919433Y-52250145D01*
X176904582Y-52318418D01*
X176883431Y-52346673D01*
X176769889Y-52460215D01*
X176644951Y-52632179D01*
X176548444Y-52821585D01*
X176482753Y-53023760D01*
X176449500Y-53233713D01*
X176449500Y-53446286D01*
X176482753Y-53656239D01*
X176548444Y-53858414D01*
X176644951Y-54047820D01*
X176769890Y-54219786D01*
X176920213Y-54370109D01*
X177092182Y-54495050D01*
X177100946Y-54499516D01*
X177151742Y-54547491D01*
X177168536Y-54615312D01*
X177145998Y-54681447D01*
X177100946Y-54720484D01*
X177092182Y-54724949D01*
X176920213Y-54849890D01*
X176769890Y-55000213D01*
X176644951Y-55172179D01*
X176548444Y-55361585D01*
X176482753Y-55563760D01*
X176449500Y-55773713D01*
X176449500Y-55986286D01*
X176482753Y-56196239D01*
X176548444Y-56398414D01*
X176644951Y-56587820D01*
X176769890Y-56759786D01*
X176920213Y-56910109D01*
X177092182Y-57035050D01*
X177100946Y-57039516D01*
X177108729Y-57046866D01*
X177118770Y-57050590D01*
X177133689Y-57070440D01*
X177151742Y-57087491D01*
X177154316Y-57097885D01*
X177160748Y-57106444D01*
X177162567Y-57131207D01*
X177168536Y-57155312D01*
X177165082Y-57165445D01*
X177165867Y-57176125D01*
X177154008Y-57197941D01*
X177145998Y-57221447D01*
X177136730Y-57229727D01*
X177132499Y-57237513D01*
X177108303Y-57255128D01*
X177104286Y-57258718D01*
X177102626Y-57259628D01*
X177092184Y-57264949D01*
X177089891Y-57266613D01*
X177083219Y-57270274D01*
X177082839Y-57270357D01*
X177079113Y-57272427D01*
X176013046Y-57806371D01*
X175957516Y-57819500D01*
X175566670Y-57819500D01*
X175566654Y-57819499D01*
X175559058Y-57819499D01*
X175400943Y-57819499D01*
X175324579Y-57839961D01*
X175248214Y-57860423D01*
X175248209Y-57860426D01*
X175111290Y-57939475D01*
X175111282Y-57939481D01*
X174178138Y-58872625D01*
X174156195Y-58884606D01*
X174136546Y-58900060D01*
X174126060Y-58901061D01*
X174116815Y-58906110D01*
X174091879Y-58904326D01*
X174066993Y-58906704D01*
X174057630Y-58901877D01*
X174047123Y-58901126D01*
X174027108Y-58886142D01*
X174004890Y-58874689D01*
X173994984Y-58862094D01*
X173991190Y-58859254D01*
X173983071Y-58846947D01*
X173960639Y-58808095D01*
X173910520Y-58721284D01*
X173798716Y-58609480D01*
X173798715Y-58609479D01*
X173794385Y-58605149D01*
X173794374Y-58605139D01*
X173247590Y-58058355D01*
X173247588Y-58058352D01*
X173128717Y-57939481D01*
X173128716Y-57939480D01*
X173041904Y-57889360D01*
X173041904Y-57889359D01*
X173041900Y-57889358D01*
X172991785Y-57860423D01*
X172839057Y-57819499D01*
X172680943Y-57819499D01*
X172673347Y-57819499D01*
X172673331Y-57819500D01*
X156782483Y-57819500D01*
X156726953Y-57806371D01*
X155660887Y-57272428D01*
X155656780Y-57270274D01*
X155650108Y-57266614D01*
X155647816Y-57264949D01*
X155637369Y-57259626D01*
X155635712Y-57258717D01*
X155612341Y-57235255D01*
X155588257Y-57212509D01*
X155587785Y-57210604D01*
X155586402Y-57209216D01*
X155579423Y-57176836D01*
X155571463Y-57144688D01*
X155572095Y-57142832D01*
X155571682Y-57140915D01*
X155583315Y-57109908D01*
X155594001Y-57078553D01*
X155595599Y-57077168D01*
X155596226Y-57075498D01*
X155605549Y-57068546D01*
X155639054Y-57039515D01*
X155647816Y-57035051D01*
X155669789Y-57019086D01*
X155819786Y-56910109D01*
X155819788Y-56910106D01*
X155819792Y-56910104D01*
X155970104Y-56759792D01*
X155970106Y-56759788D01*
X155970109Y-56759786D01*
X156095048Y-56587820D01*
X156095047Y-56587820D01*
X156095051Y-56587816D01*
X156191557Y-56398412D01*
X156257246Y-56196243D01*
X156290500Y-55986287D01*
X156290500Y-55773713D01*
X156257246Y-55563757D01*
X156191557Y-55361588D01*
X156095051Y-55172184D01*
X156095049Y-55172181D01*
X156095048Y-55172179D01*
X155970109Y-55000213D01*
X155819786Y-54849890D01*
X155647820Y-54724951D01*
X155647115Y-54724591D01*
X155639054Y-54720485D01*
X155588259Y-54672512D01*
X155571463Y-54604692D01*
X155593999Y-54538556D01*
X155639054Y-54499515D01*
X155647816Y-54495051D01*
X155705407Y-54453209D01*
X155819786Y-54370109D01*
X155819788Y-54370106D01*
X155819792Y-54370104D01*
X155970104Y-54219792D01*
X155970106Y-54219788D01*
X155970109Y-54219786D01*
X156095048Y-54047820D01*
X156095047Y-54047820D01*
X156095051Y-54047816D01*
X156191557Y-53858412D01*
X156257246Y-53656243D01*
X156290500Y-53446287D01*
X156290500Y-53233713D01*
X156257246Y-53023757D01*
X156191557Y-52821588D01*
X156095051Y-52632184D01*
X156095049Y-52632181D01*
X156095048Y-52632179D01*
X155970109Y-52460213D01*
X155856568Y-52346672D01*
X155853359Y-52340795D01*
X155823082Y-52285348D01*
X155827534Y-52223116D01*
X155828067Y-52215657D01*
X155869939Y-52159724D01*
X155869939Y-52159723D01*
X155869940Y-52159723D01*
X155900910Y-52142812D01*
X155936456Y-52129554D01*
X155943014Y-52127517D01*
X155942992Y-52127450D01*
X155955689Y-52123286D01*
X155955695Y-52123283D01*
X155955719Y-52123276D01*
X155955740Y-52123268D01*
X156011878Y-52101468D01*
X156011903Y-52101532D01*
X156013660Y-52100759D01*
X156032331Y-52093796D01*
X156088851Y-52051483D01*
X156096540Y-52046169D01*
X156127568Y-52026424D01*
X156798246Y-51450430D01*
X156861929Y-51421686D01*
X156879035Y-51420500D01*
X157676362Y-51420500D01*
X157691354Y-51424423D01*
X157704187Y-51423662D01*
X157737104Y-51436396D01*
X157837631Y-51492881D01*
X157855926Y-51506751D01*
X157856236Y-51506352D01*
X157862399Y-51511132D01*
X157862402Y-51511135D01*
X158000607Y-51592869D01*
X158000614Y-51592871D01*
X158154791Y-51637664D01*
X158154794Y-51637664D01*
X158154796Y-51637665D01*
X158190819Y-51640500D01*
X158589180Y-51640499D01*
X158625204Y-51637665D01*
X158779393Y-51592869D01*
X158836882Y-51558869D01*
X158904602Y-51541688D01*
X158963117Y-51558869D01*
X159020607Y-51592869D01*
X159020610Y-51592869D01*
X159020612Y-51592871D01*
X159174791Y-51637664D01*
X159174794Y-51637664D01*
X159174796Y-51637665D01*
X159210819Y-51640500D01*
X159609180Y-51640499D01*
X159645204Y-51637665D01*
X159799393Y-51592869D01*
X159937598Y-51511135D01*
X159937601Y-51511131D01*
X159943765Y-51506351D01*
X159944075Y-51506751D01*
X159962369Y-51492881D01*
X160062898Y-51436396D01*
X160123639Y-51420500D01*
X160696362Y-51420500D01*
X160757104Y-51436396D01*
X160857631Y-51492881D01*
X160875926Y-51506751D01*
X160876236Y-51506352D01*
X160882399Y-51511132D01*
X160882402Y-51511135D01*
X161020607Y-51592869D01*
X161020614Y-51592871D01*
X161174791Y-51637664D01*
X161174794Y-51637664D01*
X161174796Y-51637665D01*
X161210819Y-51640500D01*
X161609180Y-51640499D01*
X161645204Y-51637665D01*
X161799393Y-51592869D01*
X161857369Y-51558581D01*
X161925093Y-51541398D01*
X161983612Y-51558581D01*
X162040805Y-51592404D01*
X162180000Y-51632844D01*
X162180000Y-51632843D01*
X162680000Y-51632843D01*
X162819194Y-51592404D01*
X162957285Y-51510738D01*
X162957294Y-51510731D01*
X163070731Y-51397294D01*
X163070738Y-51397285D01*
X163152406Y-51259191D01*
X163152407Y-51259188D01*
X163197166Y-51105128D01*
X163197167Y-51105122D01*
X163199931Y-51070000D01*
X162680000Y-51070000D01*
X162680000Y-51632843D01*
X162180000Y-51632843D01*
X162180000Y-51080408D01*
X162180004Y-51079404D01*
X162180039Y-51075034D01*
X162180500Y-51069181D01*
X162180499Y-50570820D01*
X162180434Y-50570000D01*
X162180382Y-50569332D01*
X162180000Y-50559607D01*
X162180000Y-50007154D01*
X162680000Y-50007154D01*
X162680000Y-50570000D01*
X163199931Y-50570000D01*
X163197167Y-50534877D01*
X163197166Y-50534871D01*
X163152407Y-50380811D01*
X163152406Y-50380808D01*
X163070738Y-50242714D01*
X163070731Y-50242705D01*
X162957294Y-50129268D01*
X162957285Y-50129261D01*
X162819191Y-50047593D01*
X162819188Y-50047591D01*
X162680001Y-50007153D01*
X162680000Y-50007154D01*
X162180000Y-50007154D01*
X162179998Y-50007153D01*
X162040811Y-50047591D01*
X162040810Y-50047592D01*
X161983611Y-50081419D01*
X161915886Y-50098600D01*
X161857371Y-50081419D01*
X161800174Y-50047593D01*
X161799393Y-50047131D01*
X161799392Y-50047130D01*
X161799391Y-50047130D01*
X161799388Y-50047129D01*
X161645208Y-50002335D01*
X161645202Y-50002334D01*
X161609181Y-49999500D01*
X161210830Y-49999500D01*
X161210808Y-49999501D01*
X161174794Y-50002335D01*
X161020611Y-50047129D01*
X161020605Y-50047131D01*
X160882400Y-50128865D01*
X160876241Y-50133643D01*
X160875932Y-50133245D01*
X160857638Y-50147112D01*
X160757102Y-50203603D01*
X160696359Y-50219500D01*
X160140030Y-50219500D01*
X160072991Y-50199815D01*
X160027236Y-50147011D01*
X160027036Y-50146571D01*
X160021506Y-50134336D01*
X160010500Y-50083265D01*
X160010500Y-48480945D01*
X160010500Y-48480943D01*
X160010382Y-48480500D01*
X159969577Y-48328215D01*
X159923678Y-48248716D01*
X159890520Y-48191284D01*
X159778716Y-48079480D01*
X159778715Y-48079479D01*
X159774385Y-48075149D01*
X159774374Y-48075139D01*
X159217590Y-47518355D01*
X159217588Y-47518352D01*
X159098717Y-47399481D01*
X159098716Y-47399480D01*
X159011904Y-47349360D01*
X159011904Y-47349359D01*
X159011900Y-47349358D01*
X158961785Y-47320423D01*
X158809057Y-47279499D01*
X158650943Y-47279499D01*
X158643347Y-47279499D01*
X158643331Y-47279500D01*
X152066669Y-47279500D01*
X152066653Y-47279499D01*
X152059057Y-47279499D01*
X151900943Y-47279499D01*
X151793587Y-47308265D01*
X151748210Y-47320424D01*
X151748209Y-47320425D01*
X151698096Y-47349359D01*
X151698095Y-47349360D01*
X151654689Y-47374420D01*
X151611285Y-47399479D01*
X151611282Y-47399481D01*
X148999479Y-50011284D01*
X148978890Y-50046947D01*
X148970187Y-50062022D01*
X148920423Y-50148215D01*
X148879499Y-50300943D01*
X148879499Y-50459057D01*
X148879499Y-50459059D01*
X148879500Y-50469053D01*
X148879500Y-82003330D01*
X148879499Y-82003348D01*
X148879499Y-82169054D01*
X148879498Y-82169054D01*
X146550500Y-82169054D01*
X146550500Y-45709500D01*
X146570185Y-45642461D01*
X146622989Y-45596706D01*
X146674500Y-45585500D01*
X186065500Y-45585500D01*
X186132539Y-45605185D01*
G37*
G04 #@! TD.AperFunction*
G04 #@! TD*
G04 #@! TA.AperFunction,Conductor*
G04 #@! TO.N,/TP_I2C_SCL*
G36*
X158798810Y-60757086D02*
G01*
X159024160Y-61012255D01*
X159027068Y-61020725D01*
X159024160Y-61027745D01*
X158798810Y-61282913D01*
X158790765Y-61286846D01*
X158784309Y-61285368D01*
X158495969Y-61123353D01*
X158490435Y-61116313D01*
X158490000Y-61113153D01*
X158490000Y-60926846D01*
X158493427Y-60918573D01*
X158495969Y-60916646D01*
X158784310Y-60754630D01*
X158793200Y-60753566D01*
X158798810Y-60757086D01*
G37*
G04 #@! TD.AperFunction*
G04 #@! TD*
G04 #@! TA.AperFunction,Conductor*
G04 #@! TO.N,/TP_RST_N*
G36*
X172721472Y-77044214D02*
G01*
X173028608Y-77176758D01*
X173034846Y-77183182D01*
X173034714Y-77192136D01*
X173028608Y-77198242D01*
X172721472Y-77330785D01*
X172713368Y-77331217D01*
X172580732Y-77290054D01*
X172573846Y-77284329D01*
X172572500Y-77278880D01*
X172572500Y-77096119D01*
X172575927Y-77087846D01*
X172580731Y-77084945D01*
X172713368Y-77043782D01*
X172721472Y-77044214D01*
G37*
G04 #@! TD.AperFunction*
G04 #@! TD*
M02*
