M48
; DRILL file {KiCad 9.0.7} date 2026-03-10T17:18:34+0800
; FORMAT={-:-/ absolute / metric / decimal}
; #@! TF.CreationDate,2026-03-10T17:18:34+08:00
; #@! TF.GenerationSoftware,Kicad,Pcbnew,9.0.7
; #@! TF.FileFunction,Plated,1,4,PTH
FMAT,2
METRIC
; #@! TA.AperFunction,Plated,PTH,ViaDrill
T1C0.300
; #@! TA.AperFunction,Plated,PTH,ComponentDrill
T2C1.000
%
G90
G05
T1
X157.98Y-53.7
X159.26Y-68.21
X160.36Y-53.68
X160.75Y-69.23
X161.32Y-80.3
X163.24Y-53.78
X163.72Y-71.04
X163.78Y-73.49
X163.85Y-75.57
X165.31Y-80.24
X165.48Y-53.83
X165.8Y-63.51
X167.42Y-53.85
X168.19Y-72.22
X168.42Y-80.26
X170.26Y-64.33
X170.66Y-59.98
X171.47Y-59.02
X172.46Y-70.52
X173.68Y-71.54
X174.6Y-80.32
X174.69Y-75.76
X175.58Y-80.32
X176.8Y-81.4
X179.24Y-72.06
X179.26Y-74.01
T2
X154.94Y-50.8
X154.94Y-53.34
X154.94Y-55.88
X154.94Y-58.42
X154.94Y-60.96
X154.94Y-63.5
X154.94Y-66.04
X154.94Y-68.58
X177.8Y-50.8
X177.8Y-53.34
X177.8Y-55.88
X177.8Y-58.42
X177.8Y-60.96
X177.8Y-63.5
X177.8Y-66.04
X177.8Y-68.58
M30
