%TF.GenerationSoftware,KiCad,Pcbnew,9.0.7*%
%TF.CreationDate,2026-03-10T17:18:34+08:00*%
%TF.ProjectId,NX_146_SPI_MKB_Base,4e585f31-3436-45f5-9350-495f4d4b425f,rev?*%
%TF.SameCoordinates,Original*%
%TF.FileFunction,Drillmap*%
%TF.FilePolarity,Positive*%
%FSLAX45Y45*%
G04 Gerber Fmt 4.5, Leading zero omitted, Abs format (unit mm)*
G04 Created by KiCad (PCBNEW 9.0.7) date 2026-03-10 17:18:34*
%MOMM*%
%LPD*%
G01*
G04 APERTURE LIST*
%ADD10C,0.050000*%
%ADD11C,0.200000*%
G04 APERTURE END LIST*
D10*
X14605000Y-4508500D02*
X18669000Y-4508500D01*
X18669000Y-8763000D01*
X14605000Y-8763000D01*
X14605000Y-4508500D01*
X15684500Y-7366000D02*
X15811500Y-7366000D01*
X15811500Y-7874000D01*
X15684500Y-7874000D01*
X15684500Y-7366000D01*
D11*
X14863277Y-9076984D02*
X14863277Y-8876984D01*
X14863277Y-8876984D02*
X14910896Y-8876984D01*
X14910896Y-8876984D02*
X14939467Y-8886508D01*
X14939467Y-8886508D02*
X14958515Y-8905555D01*
X14958515Y-8905555D02*
X14968039Y-8924603D01*
X14968039Y-8924603D02*
X14977562Y-8962698D01*
X14977562Y-8962698D02*
X14977562Y-8991270D01*
X14977562Y-8991270D02*
X14968039Y-9029365D01*
X14968039Y-9029365D02*
X14958515Y-9048412D01*
X14958515Y-9048412D02*
X14939467Y-9067460D01*
X14939467Y-9067460D02*
X14910896Y-9076984D01*
X14910896Y-9076984D02*
X14863277Y-9076984D01*
X15063277Y-9076984D02*
X15063277Y-8943650D01*
X15063277Y-8981746D02*
X15072801Y-8962698D01*
X15072801Y-8962698D02*
X15082324Y-8953174D01*
X15082324Y-8953174D02*
X15101372Y-8943650D01*
X15101372Y-8943650D02*
X15120420Y-8943650D01*
X15187086Y-9076984D02*
X15187086Y-8943650D01*
X15187086Y-8876984D02*
X15177562Y-8886508D01*
X15177562Y-8886508D02*
X15187086Y-8896031D01*
X15187086Y-8896031D02*
X15196610Y-8886508D01*
X15196610Y-8886508D02*
X15187086Y-8876984D01*
X15187086Y-8876984D02*
X15187086Y-8896031D01*
X15310896Y-9076984D02*
X15291848Y-9067460D01*
X15291848Y-9067460D02*
X15282324Y-9048412D01*
X15282324Y-9048412D02*
X15282324Y-8876984D01*
X15415658Y-9076984D02*
X15396610Y-9067460D01*
X15396610Y-9067460D02*
X15387086Y-9048412D01*
X15387086Y-9048412D02*
X15387086Y-8876984D01*
X15644229Y-9076984D02*
X15644229Y-8876984D01*
X15644229Y-8876984D02*
X15710896Y-9019841D01*
X15710896Y-9019841D02*
X15777562Y-8876984D01*
X15777562Y-8876984D02*
X15777562Y-9076984D01*
X15958515Y-9076984D02*
X15958515Y-8972222D01*
X15958515Y-8972222D02*
X15948991Y-8953174D01*
X15948991Y-8953174D02*
X15929943Y-8943650D01*
X15929943Y-8943650D02*
X15891848Y-8943650D01*
X15891848Y-8943650D02*
X15872801Y-8953174D01*
X15958515Y-9067460D02*
X15939467Y-9076984D01*
X15939467Y-9076984D02*
X15891848Y-9076984D01*
X15891848Y-9076984D02*
X15872801Y-9067460D01*
X15872801Y-9067460D02*
X15863277Y-9048412D01*
X15863277Y-9048412D02*
X15863277Y-9029365D01*
X15863277Y-9029365D02*
X15872801Y-9010317D01*
X15872801Y-9010317D02*
X15891848Y-9000793D01*
X15891848Y-9000793D02*
X15939467Y-9000793D01*
X15939467Y-9000793D02*
X15958515Y-8991270D01*
X16053753Y-8943650D02*
X16053753Y-9143650D01*
X16053753Y-8953174D02*
X16072801Y-8943650D01*
X16072801Y-8943650D02*
X16110896Y-8943650D01*
X16110896Y-8943650D02*
X16129943Y-8953174D01*
X16129943Y-8953174D02*
X16139467Y-8962698D01*
X16139467Y-8962698D02*
X16148991Y-8981746D01*
X16148991Y-8981746D02*
X16148991Y-9038889D01*
X16148991Y-9038889D02*
X16139467Y-9057936D01*
X16139467Y-9057936D02*
X16129943Y-9067460D01*
X16129943Y-9067460D02*
X16110896Y-9076984D01*
X16110896Y-9076984D02*
X16072801Y-9076984D01*
X16072801Y-9076984D02*
X16053753Y-9067460D01*
X16234705Y-9057936D02*
X16244229Y-9067460D01*
X16244229Y-9067460D02*
X16234705Y-9076984D01*
X16234705Y-9076984D02*
X16225182Y-9067460D01*
X16225182Y-9067460D02*
X16234705Y-9057936D01*
X16234705Y-9057936D02*
X16234705Y-9076984D01*
X16234705Y-8953174D02*
X16244229Y-8962698D01*
X16244229Y-8962698D02*
X16234705Y-8972222D01*
X16234705Y-8972222D02*
X16225182Y-8962698D01*
X16225182Y-8962698D02*
X16234705Y-8953174D01*
X16234705Y-8953174D02*
X16234705Y-8972222D01*
M02*
