G04 #@! TF.GenerationSoftware,KiCad,Pcbnew,9.0.7*
G04 #@! TF.CreationDate,2026-03-10T17:18:34+08:00*
G04 #@! TF.ProjectId,NX_146_SPI_MKB_Base,4e585f31-3436-45f5-9350-495f4d4b425f,rev?*
G04 #@! TF.SameCoordinates,Original*
G04 #@! TF.FileFunction,Copper,L4,Bot*
G04 #@! TF.FilePolarity,Positive*
%FSLAX46Y46*%
G04 Gerber Fmt 4.6, Leading zero omitted, Abs format (unit mm)*
G04 Created by KiCad (PCBNEW 9.0.7) date 2026-03-10 17:18:34*
%MOMM*%
%LPD*%
G01*
G04 APERTURE LIST*
G04 #@! TA.AperFunction,ComponentPad*
%ADD10R,1.700000X1.700000*%
G04 #@! TD*
G04 #@! TA.AperFunction,ComponentPad*
%ADD11C,1.700000*%
G04 #@! TD*
G04 #@! TA.AperFunction,ViaPad*
%ADD12C,0.600000*%
G04 #@! TD*
G04 #@! TA.AperFunction,Conductor*
%ADD13C,0.500000*%
G04 #@! TD*
G04 #@! TA.AperFunction,Conductor*
%ADD14C,0.200000*%
G04 #@! TD*
G04 APERTURE END LIST*
D10*
G04 #@! TO.P,J3,1,Pin_1*
G04 #@! TO.N,Net-(J3-Pin_1)*
X154940000Y-50800000D03*
D11*
G04 #@! TO.P,J3,2,Pin_2*
G04 #@! TO.N,/TP_INT_N*
X154940000Y-53340000D03*
G04 #@! TO.P,J3,3,Pin_3*
G04 #@! TO.N,/TP_RST_N*
X154940000Y-55880000D03*
G04 #@! TO.P,J3,4,Pin_4*
G04 #@! TO.N,/LCD_TE_N*
X154940000Y-58420000D03*
G04 #@! TO.P,J3,5,Pin_5*
G04 #@! TO.N,/TP_I2C_SCL*
X154940000Y-60960000D03*
G04 #@! TO.P,J3,6,Pin_6*
G04 #@! TO.N,/TP_I2C_SDA*
X154940000Y-63500000D03*
G04 #@! TO.P,J3,7,Pin_7*
G04 #@! TO.N,Net-(J3-Pin_7)*
X154940000Y-66040000D03*
G04 #@! TO.P,J3,8,Pin_8*
G04 #@! TO.N,Earth*
X154940000Y-68580000D03*
G04 #@! TD*
D10*
G04 #@! TO.P,J2,1,Pin_1*
G04 #@! TO.N,/LCD_RS_N*
X177800000Y-50800000D03*
D11*
G04 #@! TO.P,J2,2,Pin_2*
G04 #@! TO.N,/LCD_RST_N*
X177800000Y-53340000D03*
G04 #@! TO.P,J2,3,Pin_3*
G04 #@! TO.N,/LCD_CS_N*
X177800000Y-55880000D03*
G04 #@! TO.P,J2,4,Pin_4*
G04 #@! TO.N,/LCD_SPI_CLK*
X177800000Y-58420000D03*
G04 #@! TO.P,J2,5,Pin_5*
G04 #@! TO.N,unconnected-(J2-Pin_5-Pad5)*
X177800000Y-60960000D03*
G04 #@! TO.P,J2,6,Pin_6*
G04 #@! TO.N,/LCD_SPI_MOSI*
X177800000Y-63500000D03*
G04 #@! TO.P,J2,7,Pin_7*
G04 #@! TO.N,/VDD_3V3_LCD*
X177800000Y-66040000D03*
G04 #@! TO.P,J2,8,Pin_8*
G04 #@! TO.N,Earth*
X177800000Y-68580000D03*
G04 #@! TD*
D12*
G04 #@! TO.N,Earth*
X174600000Y-80320000D03*
X163240000Y-53780000D03*
X179260000Y-74010000D03*
X157980000Y-53700000D03*
X165310000Y-80240000D03*
X179240000Y-72060000D03*
X167420000Y-53850000D03*
X175580000Y-80320000D03*
X161320000Y-80300000D03*
X172460000Y-70520000D03*
X165480000Y-53830000D03*
X163720000Y-71040000D03*
X163850000Y-75570000D03*
X173680000Y-71540000D03*
X174690000Y-75760000D03*
X160360000Y-53680000D03*
X163780000Y-73490000D03*
X168420000Y-80260000D03*
G04 #@! TO.N,/VDD_3V3_LCD*
X165800000Y-63510000D03*
X168190000Y-72220000D03*
G04 #@! TO.N,/LCD_RST_N*
X171470000Y-59020000D03*
G04 #@! TO.N,/LCD_SPI_MOSI*
X170260000Y-64330000D03*
G04 #@! TO.N,/LCD_RS_N*
X176800000Y-81400000D03*
G04 #@! TO.N,/LCD_CS_N*
X170660000Y-59980000D03*
G04 #@! TO.N,/TP_RST_N*
X160750000Y-69230000D03*
G04 #@! TO.N,/TP_I2C_SCL*
X159260000Y-68210000D03*
G04 #@! TD*
D13*
G04 #@! TO.N,/VDD_3V3_LCD*
X177800000Y-66040000D02*
X175950000Y-66040000D01*
X168190000Y-66030000D02*
X168210000Y-66010000D01*
X175950000Y-66040000D02*
X175270000Y-66040000D01*
X175920000Y-66010000D02*
X175950000Y-66040000D01*
X165800000Y-63510000D02*
X165800000Y-63600000D01*
X165800000Y-63600000D02*
X168210000Y-66010000D01*
X168210000Y-66010000D02*
X175920000Y-66010000D01*
X168190000Y-72220000D02*
X168190000Y-66030000D01*
D14*
G04 #@! TO.N,/LCD_RST_N*
X171470000Y-56390000D02*
X171460000Y-56380000D01*
X176260000Y-53330000D02*
X176270000Y-53340000D01*
X171460000Y-56380000D02*
X174510000Y-53330000D01*
X176270000Y-53340000D02*
X177800000Y-53340000D01*
X171470000Y-59020000D02*
X171470000Y-56390000D01*
X174510000Y-53330000D02*
X176260000Y-53330000D01*
G04 #@! TO.N,/LCD_SPI_MOSI*
X170540000Y-63500000D02*
X177800000Y-63500000D01*
X170260000Y-64330000D02*
X170250000Y-64320000D01*
X170250000Y-64320000D02*
X170250000Y-63790000D01*
X170250000Y-63790000D02*
X170540000Y-63500000D01*
G04 #@! TO.N,/LCD_RS_N*
X181390000Y-81400000D02*
X185350000Y-77440000D01*
X176800000Y-81400000D02*
X181390000Y-81400000D01*
X185350000Y-51790000D02*
X184360000Y-50800000D01*
X185350000Y-77440000D02*
X185350000Y-51790000D01*
X184360000Y-50800000D02*
X177800000Y-50800000D01*
G04 #@! TO.N,/LCD_CS_N*
X177800000Y-55880000D02*
X175740000Y-55880000D01*
X171640000Y-59980000D02*
X170660000Y-59980000D01*
X175740000Y-55880000D02*
X171640000Y-59980000D01*
G04 #@! TO.N,/TP_RST_N*
X154940000Y-55880000D02*
X160080000Y-55880000D01*
X160750000Y-59170000D02*
X160750000Y-56550000D01*
X160080000Y-55880000D02*
X160750000Y-56550000D01*
X160750000Y-56550000D02*
X160750000Y-56890000D01*
X160750000Y-69230000D02*
X160750000Y-59170000D01*
X160750000Y-59170000D02*
X160750000Y-56890000D01*
G04 #@! TO.N,/TP_I2C_SCL*
X159260000Y-62040000D02*
X158180000Y-60960000D01*
X159260000Y-68210000D02*
X159260000Y-62040000D01*
X158180000Y-60960000D02*
X154940000Y-60960000D01*
G04 #@! TD*
G04 #@! TA.AperFunction,Conductor*
G04 #@! TO.N,/TP_I2C_SCL*
G36*
X159360070Y-67619191D02*
G01*
X159362796Y-67623476D01*
X159549608Y-68138709D01*
X159549207Y-68147655D01*
X159542597Y-68153696D01*
X159540929Y-68154165D01*
X159262320Y-68210530D01*
X159257680Y-68210530D01*
X158979070Y-68154165D01*
X158971641Y-68149165D01*
X158969922Y-68140377D01*
X158970387Y-68138720D01*
X159157204Y-67623476D01*
X159163245Y-67616866D01*
X159168203Y-67615764D01*
X159351797Y-67615764D01*
X159360070Y-67619191D01*
G37*
G04 #@! TD.AperFunction*
G04 #@! TD*
G04 #@! TA.AperFunction,Conductor*
G04 #@! TO.N,/LCD_CS_N*
G36*
X177333503Y-55181821D02*
G01*
X177796640Y-55873490D01*
X177798395Y-55882271D01*
X177796640Y-55886510D01*
X177333503Y-56578178D01*
X177326052Y-56583145D01*
X177318541Y-56582129D01*
X176122793Y-55983235D01*
X176116931Y-55976466D01*
X176116333Y-55972774D01*
X176116333Y-55787225D01*
X176119760Y-55778952D01*
X176122790Y-55776765D01*
X177318543Y-55177869D01*
X177327473Y-55177229D01*
X177333503Y-55181821D01*
G37*
G04 #@! TD.AperFunction*
G04 #@! TD*
G04 #@! TA.AperFunction,Conductor*
G04 #@! TO.N,/LCD_RST_N*
G36*
X177334084Y-52642704D02*
G01*
X177796355Y-53334198D01*
X177798104Y-53342980D01*
X177796349Y-53347211D01*
X177333811Y-54037722D01*
X177326359Y-54042689D01*
X177318316Y-54041387D01*
X176202654Y-53408293D01*
X176197150Y-53401229D01*
X176198252Y-53392343D01*
X176200151Y-53389848D01*
X176329778Y-53260221D01*
X176331819Y-53258593D01*
X177318136Y-52639296D01*
X177326964Y-52637800D01*
X177334084Y-52642704D01*
G37*
G04 #@! TD.AperFunction*
G04 #@! TD*
G04 #@! TA.AperFunction,Conductor*
G04 #@! TO.N,/TP_RST_N*
G36*
X160850070Y-68639191D02*
G01*
X160852796Y-68643476D01*
X161039608Y-69158709D01*
X161039207Y-69167655D01*
X161032597Y-69173696D01*
X161030929Y-69174165D01*
X160752320Y-69230530D01*
X160747680Y-69230530D01*
X160469070Y-69174165D01*
X160461641Y-69169165D01*
X160459922Y-69160377D01*
X160460387Y-69158720D01*
X160647204Y-68643476D01*
X160653245Y-68636866D01*
X160658203Y-68635764D01*
X160841797Y-68635764D01*
X160850070Y-68639191D01*
G37*
G04 #@! TD.AperFunction*
G04 #@! TD*
G04 #@! TA.AperFunction,Conductor*
G04 #@! TO.N,/LCD_SPI_MOSI*
G36*
X177333503Y-62801821D02*
G01*
X177796640Y-63493490D01*
X177798395Y-63502271D01*
X177796640Y-63506510D01*
X177333503Y-64198178D01*
X177326052Y-64203145D01*
X177318541Y-64202129D01*
X176122793Y-63603235D01*
X176116931Y-63596466D01*
X176116333Y-63592774D01*
X176116333Y-63407225D01*
X176119760Y-63398952D01*
X176122790Y-63396765D01*
X177318543Y-62797869D01*
X177327473Y-62797229D01*
X177333503Y-62801821D01*
G37*
G04 #@! TD.AperFunction*
G04 #@! TD*
G04 #@! TA.AperFunction,Conductor*
G04 #@! TO.N,/VDD_3V3_LCD*
G36*
X166055909Y-63353075D02*
G01*
X166265558Y-63668974D01*
X166345174Y-63788938D01*
X166346894Y-63797726D01*
X166343699Y-63803681D01*
X166005437Y-64141943D01*
X165997164Y-64145370D01*
X165988891Y-64141943D01*
X165988648Y-64141693D01*
X165560011Y-63686704D01*
X165556832Y-63678332D01*
X165560504Y-63670165D01*
X165561983Y-63668983D01*
X165799293Y-63509293D01*
X165799296Y-63509298D01*
X165799347Y-63509257D01*
X166039693Y-63349795D01*
X166048481Y-63348077D01*
X166055909Y-63353075D01*
G37*
G04 #@! TD.AperFunction*
G04 #@! TD*
G04 #@! TA.AperFunction,Conductor*
G04 #@! TO.N,Earth*
G36*
X186132539Y-45605185D02*
G01*
X186178294Y-45657989D01*
X186189500Y-45709500D01*
X186189500Y-51661030D01*
X186169815Y-51728069D01*
X186117011Y-51773824D01*
X186047853Y-51783768D01*
X185984297Y-51754743D01*
X185946523Y-51695965D01*
X185945725Y-51693124D01*
X185909577Y-51558216D01*
X185909573Y-51558209D01*
X185830524Y-51421290D01*
X185830521Y-51421286D01*
X185830520Y-51421284D01*
X185718716Y-51309480D01*
X185718715Y-51309479D01*
X185714385Y-51305149D01*
X185714374Y-51305139D01*
X184847590Y-50438355D01*
X184847588Y-50438352D01*
X184728717Y-50319481D01*
X184728716Y-50319480D01*
X184641904Y-50269360D01*
X184641904Y-50269359D01*
X184641900Y-50269358D01*
X184591785Y-50240423D01*
X184439057Y-50199499D01*
X184280943Y-50199499D01*
X184273347Y-50199499D01*
X184273331Y-50199500D01*
X179743684Y-50199500D01*
X179676645Y-50179815D01*
X179661643Y-50168480D01*
X179359785Y-49902135D01*
X178992685Y-49578223D01*
X178963081Y-49554030D01*
X178963077Y-49554027D01*
X178944427Y-49543729D01*
X178944426Y-49543729D01*
X178936922Y-49539585D01*
X178892331Y-49506204D01*
X178843461Y-49487976D01*
X178837127Y-49484479D01*
X178829394Y-49481553D01*
X178829391Y-49481552D01*
X178829388Y-49481551D01*
X178822272Y-49479578D01*
X178812069Y-49476268D01*
X178757482Y-49455908D01*
X178757483Y-49455908D01*
X178697883Y-49449501D01*
X178697881Y-49449500D01*
X178697873Y-49449500D01*
X178697864Y-49449500D01*
X176902129Y-49449500D01*
X176902123Y-49449501D01*
X176842516Y-49455908D01*
X176707671Y-49506202D01*
X176707664Y-49506206D01*
X176592455Y-49592452D01*
X176592452Y-49592455D01*
X176506206Y-49707664D01*
X176506202Y-49707671D01*
X176455908Y-49842517D01*
X176449501Y-49902116D01*
X176449501Y-49902123D01*
X176449500Y-49902135D01*
X176449500Y-51697870D01*
X176449501Y-51697876D01*
X176455908Y-51757483D01*
X176506202Y-51892328D01*
X176506206Y-51892335D01*
X176592452Y-52007544D01*
X176592455Y-52007547D01*
X176707664Y-52093793D01*
X176707671Y-52093797D01*
X176804115Y-52129768D01*
X176860049Y-52171639D01*
X176884466Y-52237103D01*
X176869615Y-52305376D01*
X176826720Y-52350965D01*
X176254089Y-52710514D01*
X176237283Y-52715353D01*
X176223094Y-52724474D01*
X176188166Y-52729496D01*
X176188159Y-52729499D01*
X176180943Y-52729499D01*
X176180941Y-52729499D01*
X176173339Y-52729500D01*
X176173337Y-52729499D01*
X176173331Y-52729500D01*
X174430940Y-52729500D01*
X174393621Y-52739499D01*
X174393622Y-52739500D01*
X174278214Y-52770423D01*
X174278209Y-52770426D01*
X174141290Y-52849475D01*
X174141282Y-52849481D01*
X174029478Y-52961286D01*
X171091284Y-55899481D01*
X170979483Y-56011281D01*
X170979481Y-56011284D01*
X170900423Y-56148214D01*
X170900423Y-56148215D01*
X170859499Y-56300943D01*
X170859499Y-56300945D01*
X170859499Y-56459057D01*
X170865275Y-56480613D01*
X170869500Y-56512706D01*
X170869500Y-58440234D01*
X170849815Y-58507273D01*
X170848602Y-58509125D01*
X170760609Y-58640814D01*
X170760602Y-58640827D01*
X170700264Y-58786498D01*
X170700261Y-58786510D01*
X170669500Y-58941153D01*
X170669500Y-59060163D01*
X170649815Y-59127202D01*
X170597011Y-59172957D01*
X170569692Y-59181780D01*
X170426508Y-59210261D01*
X170426498Y-59210264D01*
X170280827Y-59270602D01*
X170280814Y-59270609D01*
X170149711Y-59358210D01*
X170149707Y-59358213D01*
X170038213Y-59469707D01*
X170038210Y-59469711D01*
X169950609Y-59600814D01*
X169950602Y-59600827D01*
X169890264Y-59746498D01*
X169890261Y-59746510D01*
X169859500Y-59901153D01*
X169859500Y-60058846D01*
X169890261Y-60213489D01*
X169890264Y-60213501D01*
X169950602Y-60359172D01*
X169950609Y-60359185D01*
X170038210Y-60490288D01*
X170038213Y-60490292D01*
X170149707Y-60601786D01*
X170149711Y-60601789D01*
X170280814Y-60689390D01*
X170280827Y-60689397D01*
X170426498Y-60749735D01*
X170426503Y-60749737D01*
X170581153Y-60780499D01*
X170581156Y-60780500D01*
X170581158Y-60780500D01*
X170738844Y-60780500D01*
X170738845Y-60780499D01*
X170893497Y-60749737D01*
X171039179Y-60689394D01*
X171107480Y-60643757D01*
X171170875Y-60601398D01*
X171237553Y-60580520D01*
X171239766Y-60580500D01*
X171553331Y-60580500D01*
X171553347Y-60580501D01*
X171560943Y-60580501D01*
X171719054Y-60580501D01*
X171719057Y-60580501D01*
X171871785Y-60539577D01*
X171921904Y-60510639D01*
X172008716Y-60460520D01*
X172120520Y-60348716D01*
X172120520Y-60348714D01*
X172130728Y-60338507D01*
X172130729Y-60338504D01*
X175924860Y-56544374D01*
X175986181Y-56510891D01*
X176055873Y-56515875D01*
X176068066Y-56521184D01*
X177079114Y-57027571D01*
X177083210Y-57029719D01*
X177089885Y-57033381D01*
X177092184Y-57035051D01*
X177102648Y-57040382D01*
X177104291Y-57041284D01*
X177127664Y-57064749D01*
X177151740Y-57087487D01*
X177152212Y-57089393D01*
X177153599Y-57090786D01*
X177160574Y-57123159D01*
X177168536Y-57155307D01*
X177167902Y-57157167D01*
X177168316Y-57159088D01*
X177156681Y-57190095D01*
X177146000Y-57221443D01*
X177144399Y-57222829D01*
X177143771Y-57224505D01*
X177134433Y-57231465D01*
X177100953Y-57260480D01*
X177092181Y-57264950D01*
X176920213Y-57389890D01*
X176769890Y-57540213D01*
X176644951Y-57712179D01*
X176548444Y-57901585D01*
X176482753Y-58103760D01*
X176449500Y-58313713D01*
X176449500Y-58526286D01*
X176482753Y-58736239D01*
X176548444Y-58938414D01*
X176644951Y-59127820D01*
X176769890Y-59299786D01*
X176920213Y-59450109D01*
X177092182Y-59575050D01*
X177100946Y-59579516D01*
X177151742Y-59627491D01*
X177168536Y-59695312D01*
X177145998Y-59761447D01*
X177100946Y-59800484D01*
X177092182Y-59804949D01*
X176920213Y-59929890D01*
X176769890Y-60080213D01*
X176644951Y-60252179D01*
X176548444Y-60441585D01*
X176482753Y-60643760D01*
X176449500Y-60853713D01*
X176449500Y-61066286D01*
X176482753Y-61276239D01*
X176548444Y-61478414D01*
X176644951Y-61667820D01*
X176769890Y-61839786D01*
X176920213Y-61990109D01*
X177092182Y-62115050D01*
X177100946Y-62119516D01*
X177108729Y-62126866D01*
X177118770Y-62130590D01*
X177133689Y-62150440D01*
X177151742Y-62167491D01*
X177154316Y-62177885D01*
X177160748Y-62186444D01*
X177162567Y-62211207D01*
X177168536Y-62235312D01*
X177165082Y-62245445D01*
X177165867Y-62256125D01*
X177154008Y-62277941D01*
X177145998Y-62301447D01*
X177136730Y-62309727D01*
X177132499Y-62317513D01*
X177108303Y-62335128D01*
X177104286Y-62338718D01*
X177102626Y-62339628D01*
X177092184Y-62344949D01*
X177089891Y-62346613D01*
X177083219Y-62350274D01*
X177082839Y-62350357D01*
X177079113Y-62352427D01*
X176013046Y-62886371D01*
X175957516Y-62899500D01*
X170626669Y-62899500D01*
X170626653Y-62899499D01*
X170619057Y-62899499D01*
X170460943Y-62899499D01*
X170353587Y-62928265D01*
X170308210Y-62940424D01*
X170308209Y-62940425D01*
X170258096Y-62969359D01*
X170258095Y-62969360D01*
X170214689Y-62994420D01*
X170171285Y-63019479D01*
X170171282Y-63019481D01*
X169769481Y-63421282D01*
X169769480Y-63421284D01*
X169740753Y-63471041D01*
X169690423Y-63558215D01*
X169649499Y-63710943D01*
X169649499Y-63710945D01*
X169649499Y-63765201D01*
X169629814Y-63832240D01*
X169628601Y-63834092D01*
X169550609Y-63950814D01*
X169550602Y-63950827D01*
X169490264Y-64096498D01*
X169490261Y-64096510D01*
X169459500Y-64251153D01*
X169459500Y-64408846D01*
X169490261Y-64563489D01*
X169490264Y-64563501D01*
X169550602Y-64709172D01*
X169550609Y-64709185D01*
X169638210Y-64840288D01*
X169638213Y-64840292D01*
X169749707Y-64951786D01*
X169749711Y-64951789D01*
X169870350Y-65032398D01*
X169915155Y-65086010D01*
X169923862Y-65155335D01*
X169893708Y-65218363D01*
X169834264Y-65255082D01*
X169801459Y-65259500D01*
X168572229Y-65259500D01*
X168505190Y-65239815D01*
X168484548Y-65223181D01*
X166766404Y-63505037D01*
X166750772Y-63485930D01*
X166477094Y-63073551D01*
X166444833Y-63030169D01*
X166444832Y-63030168D01*
X166444826Y-63030160D01*
X166440857Y-63025792D01*
X166429534Y-63011303D01*
X166421789Y-62999711D01*
X166421787Y-62999709D01*
X166421785Y-62999706D01*
X166310292Y-62888213D01*
X166310288Y-62888210D01*
X166179185Y-62800609D01*
X166179172Y-62800602D01*
X166033501Y-62740264D01*
X166033489Y-62740261D01*
X165878845Y-62709500D01*
X165878842Y-62709500D01*
X165721158Y-62709500D01*
X165721155Y-62709500D01*
X165566510Y-62740261D01*
X165566498Y-62740264D01*
X165420827Y-62800602D01*
X165420814Y-62800609D01*
X165289711Y-62888210D01*
X165289707Y-62888213D01*
X165178213Y-62999707D01*
X165178210Y-62999711D01*
X165090609Y-63130814D01*
X165090602Y-63130827D01*
X165030264Y-63276498D01*
X165030261Y-63276510D01*
X164999500Y-63431153D01*
X164999500Y-63588846D01*
X165030261Y-63743489D01*
X165030264Y-63743501D01*
X165090602Y-63889171D01*
X165090604Y-63889176D01*
X165090606Y-63889179D01*
X165134914Y-63955491D01*
X165134916Y-63955495D01*
X165157598Y-63989442D01*
X165159134Y-63991740D01*
X165167812Y-64004727D01*
X165167813Y-64004730D01*
X165217046Y-64078414D01*
X165217052Y-64078421D01*
X165383682Y-64245050D01*
X165519126Y-64380494D01*
X165620709Y-64488322D01*
X165626167Y-64494025D01*
X165626410Y-64494275D01*
X165671697Y-64535539D01*
X165677781Y-64539149D01*
X165687729Y-64549097D01*
X167403181Y-66264548D01*
X167436666Y-66325871D01*
X167439500Y-66352229D01*
X167439500Y-71562669D01*
X167436369Y-71590356D01*
X167435329Y-71594895D01*
X167435326Y-71594910D01*
X167392835Y-72109489D01*
X167392107Y-72121995D01*
X167389937Y-72138959D01*
X167389500Y-72141153D01*
X167389500Y-72298846D01*
X167420261Y-72453489D01*
X167420264Y-72453501D01*
X167480602Y-72599172D01*
X167480609Y-72599185D01*
X167568210Y-72730288D01*
X167568213Y-72730292D01*
X167679707Y-72841786D01*
X167679711Y-72841789D01*
X167810814Y-72929390D01*
X167810827Y-72929397D01*
X167956498Y-72989735D01*
X167956503Y-72989737D01*
X168111153Y-73020499D01*
X168111156Y-73020500D01*
X168111158Y-73020500D01*
X168268844Y-73020500D01*
X168268845Y-73020499D01*
X168423497Y-72989737D01*
X168569179Y-72929394D01*
X168700289Y-72841789D01*
X168811789Y-72730289D01*
X168899394Y-72599179D01*
X168959737Y-72453497D01*
X168990500Y-72298842D01*
X168990500Y-72141158D01*
X168989584Y-72136557D01*
X168987209Y-72113717D01*
X168987163Y-72109516D01*
X168987164Y-72109505D01*
X168944672Y-71594902D01*
X168941323Y-71566000D01*
X168940500Y-71551732D01*
X168940500Y-66884500D01*
X168960185Y-66817461D01*
X169012989Y-66771706D01*
X169064500Y-66760500D01*
X175033053Y-66760500D01*
X175057245Y-66762883D01*
X175196079Y-66790500D01*
X175196082Y-66790500D01*
X175876082Y-66790500D01*
X175986470Y-66790500D01*
X176030975Y-66798761D01*
X176736608Y-67070104D01*
X177077022Y-67201006D01*
X177132529Y-67243441D01*
X177156283Y-67309148D01*
X177140742Y-67377268D01*
X177095708Y-67421399D01*
X177096590Y-67422838D01*
X177092440Y-67425380D01*
X177038282Y-67464727D01*
X177038282Y-67464728D01*
X177670591Y-68097037D01*
X177607007Y-68114075D01*
X177492993Y-68179901D01*
X177399901Y-68272993D01*
X177334075Y-68387007D01*
X177317037Y-68450591D01*
X176684728Y-67818282D01*
X176684727Y-67818282D01*
X176645380Y-67872439D01*
X176548904Y-68061782D01*
X176483242Y-68263869D01*
X176483242Y-68263872D01*
X176450000Y-68473753D01*
X176450000Y-68686246D01*
X176483242Y-68896127D01*
X176483242Y-68896130D01*
X176548904Y-69098217D01*
X176645375Y-69287550D01*
X176684728Y-69341716D01*
X177317037Y-68709408D01*
X177334075Y-68772993D01*
X177399901Y-68887007D01*
X177492993Y-68980099D01*
X177607007Y-69045925D01*
X177670590Y-69062962D01*
X177038282Y-69695269D01*
X177038282Y-69695270D01*
X177092449Y-69734624D01*
X177281782Y-69831095D01*
X177483870Y-69896757D01*
X177693754Y-69930000D01*
X177906246Y-69930000D01*
X178116127Y-69896757D01*
X178116130Y-69896757D01*
X178318217Y-69831095D01*
X178507554Y-69734622D01*
X178561716Y-69695270D01*
X178561717Y-69695270D01*
X177929408Y-69062962D01*
X177992993Y-69045925D01*
X178107007Y-68980099D01*
X178200099Y-68887007D01*
X178265925Y-68772993D01*
X178282962Y-68709408D01*
X178915270Y-69341717D01*
X178915270Y-69341716D01*
X178954622Y-69287554D01*
X179051095Y-69098217D01*
X179116757Y-68896130D01*
X179116757Y-68896127D01*
X179150000Y-68686246D01*
X179150000Y-68473753D01*
X179116757Y-68263872D01*
X179116757Y-68263869D01*
X179051095Y-68061782D01*
X178954624Y-67872449D01*
X178915270Y-67818282D01*
X178915269Y-67818282D01*
X178282962Y-68450590D01*
X178265925Y-68387007D01*
X178200099Y-68272993D01*
X178107007Y-68179901D01*
X177992993Y-68114075D01*
X177929409Y-68097037D01*
X178561716Y-67464728D01*
X178507547Y-67425373D01*
X178507547Y-67425372D01*
X178498500Y-67420763D01*
X178447706Y-67372788D01*
X178430912Y-67304966D01*
X178453451Y-67238832D01*
X178498508Y-67199793D01*
X178507816Y-67195051D01*
X178587007Y-67137515D01*
X178679786Y-67070109D01*
X178679788Y-67070106D01*
X178679792Y-67070104D01*
X178830104Y-66919792D01*
X178830106Y-66919788D01*
X178830109Y-66919786D01*
X178955048Y-66747820D01*
X178955047Y-66747820D01*
X178955051Y-66747816D01*
X179051557Y-66558412D01*
X179117246Y-66356243D01*
X179150500Y-66146287D01*
X179150500Y-65933713D01*
X179117246Y-65723757D01*
X179051557Y-65521588D01*
X178955051Y-65332184D01*
X178955049Y-65332181D01*
X178955048Y-65332179D01*
X178830109Y-65160213D01*
X178679786Y-65009890D01*
X178507820Y-64884951D01*
X178507115Y-64884591D01*
X178499054Y-64880485D01*
X178448259Y-64832512D01*
X178431463Y-64764692D01*
X178453999Y-64698556D01*
X178499054Y-64659515D01*
X178507816Y-64655051D01*
X178633825Y-64563501D01*
X178679786Y-64530109D01*
X178679788Y-64530106D01*
X178679792Y-64530104D01*
X178830104Y-64379792D01*
X178830106Y-64379788D01*
X178830109Y-64379786D01*
X178955048Y-64207820D01*
X178955047Y-64207820D01*
X178955051Y-64207816D01*
X179051557Y-64018412D01*
X179117246Y-63816243D01*
X179150500Y-63606287D01*
X179150500Y-63393713D01*
X179117246Y-63183757D01*
X179051557Y-62981588D01*
X178955051Y-62792184D01*
X178955049Y-62792181D01*
X178955048Y-62792179D01*
X178830109Y-62620213D01*
X178679786Y-62469890D01*
X178507820Y-62344951D01*
X178507115Y-62344591D01*
X178499054Y-62340485D01*
X178448259Y-62292512D01*
X178431463Y-62224692D01*
X178453999Y-62158556D01*
X178499054Y-62119515D01*
X178507816Y-62115051D01*
X178529789Y-62099086D01*
X178679786Y-61990109D01*
X178679788Y-61990106D01*
X178679792Y-61990104D01*
X178830104Y-61839792D01*
X178830106Y-61839788D01*
X178830109Y-61839786D01*
X178955048Y-61667820D01*
X178955047Y-61667820D01*
X178955051Y-61667816D01*
X179051557Y-61478412D01*
X179117246Y-61276243D01*
X179150500Y-61066287D01*
X179150500Y-60853713D01*
X179117246Y-60643757D01*
X179051557Y-60441588D01*
X178955051Y-60252184D01*
X178955049Y-60252181D01*
X178955048Y-60252179D01*
X178830109Y-60080213D01*
X178679786Y-59929890D01*
X178507820Y-59804951D01*
X178507115Y-59804591D01*
X178499054Y-59800485D01*
X178448259Y-59752512D01*
X178431463Y-59684692D01*
X178453999Y-59618556D01*
X178499054Y-59579515D01*
X178507816Y-59575051D01*
X178529789Y-59559086D01*
X178679786Y-59450109D01*
X178679788Y-59450106D01*
X178679792Y-59450104D01*
X178830104Y-59299792D01*
X178830106Y-59299788D01*
X178830109Y-59299786D01*
X178955048Y-59127820D01*
X178955047Y-59127820D01*
X178955051Y-59127816D01*
X179051557Y-58938412D01*
X179117246Y-58736243D01*
X179150500Y-58526287D01*
X179150500Y-58313713D01*
X179117246Y-58103757D01*
X179051557Y-57901588D01*
X178955051Y-57712184D01*
X178955049Y-57712181D01*
X178955048Y-57712179D01*
X178830109Y-57540213D01*
X178679786Y-57389890D01*
X178507820Y-57264951D01*
X178507115Y-57264591D01*
X178499054Y-57260485D01*
X178448259Y-57212512D01*
X178431463Y-57144692D01*
X178453999Y-57078556D01*
X178499054Y-57039515D01*
X178507816Y-57035051D01*
X178529789Y-57019086D01*
X178679786Y-56910109D01*
X178679788Y-56910106D01*
X178679792Y-56910104D01*
X178830104Y-56759792D01*
X178830106Y-56759788D01*
X178830109Y-56759786D01*
X178955048Y-56587820D01*
X178955047Y-56587820D01*
X178955051Y-56587816D01*
X179051557Y-56398412D01*
X179117246Y-56196243D01*
X179150500Y-55986287D01*
X179150500Y-55773713D01*
X179117246Y-55563757D01*
X179051557Y-55361588D01*
X178955051Y-55172184D01*
X178955049Y-55172181D01*
X178955048Y-55172179D01*
X178830109Y-55000213D01*
X178679786Y-54849890D01*
X178507820Y-54724951D01*
X178507115Y-54724591D01*
X178499054Y-54720485D01*
X178448259Y-54672512D01*
X178431463Y-54604692D01*
X178453999Y-54538556D01*
X178499054Y-54499515D01*
X178507816Y-54495051D01*
X178529789Y-54479086D01*
X178679786Y-54370109D01*
X178679788Y-54370106D01*
X178679792Y-54370104D01*
X178830104Y-54219792D01*
X178830106Y-54219788D01*
X178830109Y-54219786D01*
X178955048Y-54047820D01*
X178955047Y-54047820D01*
X178955051Y-54047816D01*
X179051557Y-53858412D01*
X179117246Y-53656243D01*
X179150500Y-53446287D01*
X179150500Y-53233713D01*
X179117246Y-53023757D01*
X179051557Y-52821588D01*
X178955051Y-52632184D01*
X178955049Y-52632181D01*
X178955048Y-52632179D01*
X178830109Y-52460213D01*
X178716568Y-52346672D01*
X178683083Y-52285349D01*
X178688067Y-52215657D01*
X178729938Y-52159725D01*
X178729939Y-52159723D01*
X178760907Y-52142813D01*
X178801589Y-52127639D01*
X178813187Y-52123952D01*
X178813679Y-52123820D01*
X178813694Y-52123818D01*
X178822165Y-52120914D01*
X178851350Y-52109126D01*
X178854366Y-52107954D01*
X178892331Y-52093796D01*
X178956283Y-52045920D01*
X178962587Y-52041501D01*
X178992686Y-52021775D01*
X179661642Y-51431520D01*
X179724934Y-51401926D01*
X179743683Y-51400500D01*
X184059903Y-51400500D01*
X184126942Y-51420185D01*
X184147584Y-51436819D01*
X184713181Y-52002416D01*
X184746666Y-52063739D01*
X184749500Y-52090097D01*
X184749500Y-77139902D01*
X184729815Y-77206941D01*
X184713181Y-77227583D01*
X181177584Y-80763181D01*
X181116261Y-80796666D01*
X181089903Y-80799500D01*
X177518625Y-80799500D01*
X177476358Y-80792074D01*
X177061490Y-80641652D01*
X177061456Y-80641640D01*
X177057516Y-80640212D01*
X177033497Y-80630263D01*
X177019991Y-80627576D01*
X177008178Y-80623779D01*
X177006520Y-80623312D01*
X176909793Y-80605377D01*
X176905598Y-80604822D01*
X176901292Y-80603965D01*
X176878842Y-80599500D01*
X176721158Y-80599500D01*
X176721155Y-80599500D01*
X176566510Y-80630261D01*
X176566498Y-80630264D01*
X176420827Y-80690602D01*
X176420814Y-80690609D01*
X176289711Y-80778210D01*
X176289707Y-80778213D01*
X176178213Y-80889707D01*
X176178210Y-80889711D01*
X176090609Y-81020814D01*
X176090602Y-81020827D01*
X176030264Y-81166498D01*
X176030261Y-81166510D01*
X175999500Y-81321153D01*
X175999500Y-81478846D01*
X176030261Y-81633489D01*
X176030264Y-81633501D01*
X176090602Y-81779172D01*
X176090609Y-81779185D01*
X176178210Y-81910288D01*
X176178213Y-81910292D01*
X176289707Y-82021786D01*
X176289711Y-82021789D01*
X176420814Y-82109390D01*
X176420827Y-82109397D01*
X176540185Y-82158836D01*
X176566503Y-82169737D01*
X176721153Y-82200499D01*
X176721156Y-82200500D01*
X176721158Y-82200500D01*
X176878844Y-82200500D01*
X176878845Y-82200499D01*
X177033497Y-82169737D01*
X177054964Y-82160843D01*
X177060120Y-82158842D01*
X177476357Y-82007926D01*
X177518624Y-82000500D01*
X181303331Y-82000500D01*
X181303347Y-82000501D01*
X181310943Y-82000501D01*
X181469054Y-82000501D01*
X181469057Y-82000501D01*
X181621785Y-81959577D01*
X181678940Y-81926578D01*
X181758716Y-81880520D01*
X181870520Y-81768716D01*
X181870520Y-81768714D01*
X181880724Y-81758511D01*
X181880727Y-81758506D01*
X185830520Y-77808716D01*
X185909577Y-77671784D01*
X185945725Y-77536877D01*
X185982091Y-77477219D01*
X186044938Y-77446690D01*
X186114313Y-77454985D01*
X186168191Y-77499471D01*
X186189465Y-77566023D01*
X186189500Y-77568973D01*
X186189500Y-87005500D01*
X186169815Y-87072539D01*
X186117011Y-87118294D01*
X186065500Y-87129500D01*
X146674500Y-87129500D01*
X146607461Y-87109815D01*
X146561706Y-87057011D01*
X146550500Y-87005500D01*
X146550500Y-73594108D01*
X156344500Y-73594108D01*
X156344500Y-78805891D01*
X156378608Y-78933187D01*
X156411554Y-78990250D01*
X156444500Y-79047314D01*
X156537686Y-79140500D01*
X156651814Y-79206392D01*
X156779108Y-79240500D01*
X156779110Y-79240500D01*
X158180890Y-79240500D01*
X158180892Y-79240500D01*
X158308186Y-79206392D01*
X158422314Y-79140500D01*
X158515500Y-79047314D01*
X158581392Y-78933186D01*
X158615500Y-78805892D01*
X158615500Y-73594108D01*
X158581392Y-73466814D01*
X158515500Y-73352686D01*
X158422314Y-73259500D01*
X158365250Y-73226554D01*
X158308187Y-73193608D01*
X158244539Y-73176554D01*
X158180892Y-73159500D01*
X156910892Y-73159500D01*
X156779108Y-73159500D01*
X156651812Y-73193608D01*
X156537686Y-73259500D01*
X156537683Y-73259502D01*
X156444502Y-73352683D01*
X156444500Y-73352686D01*
X156378608Y-73466812D01*
X156344500Y-73594108D01*
X146550500Y-73594108D01*
X146550500Y-49902135D01*
X153589500Y-49902135D01*
X153589500Y-51697870D01*
X153589501Y-51697876D01*
X153595908Y-51757483D01*
X153646202Y-51892328D01*
X153646206Y-51892335D01*
X153732452Y-52007544D01*
X153732455Y-52007547D01*
X153847664Y-52093793D01*
X153847671Y-52093797D01*
X153979082Y-52142810D01*
X154035016Y-52184681D01*
X154059433Y-52250145D01*
X154044582Y-52318418D01*
X154023431Y-52346673D01*
X153909889Y-52460215D01*
X153784951Y-52632179D01*
X153688444Y-52821585D01*
X153622753Y-53023760D01*
X153589500Y-53233713D01*
X153589500Y-53446286D01*
X153622753Y-53656239D01*
X153688444Y-53858414D01*
X153784951Y-54047820D01*
X153909890Y-54219786D01*
X154060213Y-54370109D01*
X154232182Y-54495050D01*
X154240946Y-54499516D01*
X154291742Y-54547491D01*
X154308536Y-54615312D01*
X154285998Y-54681447D01*
X154240946Y-54720484D01*
X154232182Y-54724949D01*
X154060213Y-54849890D01*
X153909890Y-55000213D01*
X153784951Y-55172179D01*
X153688444Y-55361585D01*
X153622753Y-55563760D01*
X153589500Y-55773713D01*
X153589500Y-55986286D01*
X153620384Y-56181284D01*
X153622754Y-56196243D01*
X153662385Y-56318215D01*
X153688444Y-56398414D01*
X153784951Y-56587820D01*
X153909890Y-56759786D01*
X154060213Y-56910109D01*
X154232182Y-57035050D01*
X154240946Y-57039516D01*
X154291742Y-57087491D01*
X154308536Y-57155312D01*
X154285998Y-57221447D01*
X154240946Y-57260484D01*
X154232182Y-57264949D01*
X154060213Y-57389890D01*
X153909890Y-57540213D01*
X153784951Y-57712179D01*
X153688444Y-57901585D01*
X153622753Y-58103760D01*
X153589500Y-58313713D01*
X153589500Y-58526286D01*
X153622753Y-58736239D01*
X153688444Y-58938414D01*
X153784951Y-59127820D01*
X153909890Y-59299786D01*
X154060213Y-59450109D01*
X154232182Y-59575050D01*
X154240946Y-59579516D01*
X154291742Y-59627491D01*
X154308536Y-59695312D01*
X154285998Y-59761447D01*
X154240946Y-59800484D01*
X154232182Y-59804949D01*
X154060213Y-59929890D01*
X153909890Y-60080213D01*
X153784951Y-60252179D01*
X153688444Y-60441585D01*
X153622753Y-60643760D01*
X153589500Y-60853713D01*
X153589500Y-61066286D01*
X153622753Y-61276239D01*
X153688444Y-61478414D01*
X153784951Y-61667820D01*
X153909890Y-61839786D01*
X154060213Y-61990109D01*
X154232182Y-62115050D01*
X154240946Y-62119516D01*
X154291742Y-62167491D01*
X154308536Y-62235312D01*
X154285998Y-62301447D01*
X154240946Y-62340484D01*
X154232182Y-62344949D01*
X154060213Y-62469890D01*
X153909890Y-62620213D01*
X153784951Y-62792179D01*
X153688444Y-62981585D01*
X153622753Y-63183760D01*
X153589500Y-63393713D01*
X153589500Y-63606286D01*
X153614669Y-63765201D01*
X153622754Y-63816243D01*
X153683997Y-64004730D01*
X153688444Y-64018414D01*
X153784951Y-64207820D01*
X153909890Y-64379786D01*
X154060213Y-64530109D01*
X154232182Y-64655050D01*
X154240946Y-64659516D01*
X154291742Y-64707491D01*
X154308536Y-64775312D01*
X154285998Y-64841447D01*
X154240946Y-64880484D01*
X154232182Y-64884949D01*
X154060213Y-65009890D01*
X153909890Y-65160213D01*
X153784951Y-65332179D01*
X153688444Y-65521585D01*
X153622753Y-65723760D01*
X153589500Y-65933713D01*
X153589500Y-66146286D01*
X153622753Y-66356239D01*
X153688444Y-66558414D01*
X153784951Y-66747820D01*
X153909890Y-66919786D01*
X154060213Y-67070109D01*
X154232179Y-67195048D01*
X154232181Y-67195049D01*
X154232184Y-67195051D01*
X154241493Y-67199794D01*
X154292290Y-67247766D01*
X154309087Y-67315587D01*
X154286552Y-67381722D01*
X154241505Y-67420760D01*
X154232446Y-67425376D01*
X154232440Y-67425380D01*
X154178282Y-67464727D01*
X154178282Y-67464728D01*
X154810591Y-68097037D01*
X154747007Y-68114075D01*
X154632993Y-68179901D01*
X154539901Y-68272993D01*
X154474075Y-68387007D01*
X154457037Y-68450591D01*
X153824728Y-67818282D01*
X153824727Y-67818282D01*
X153785380Y-67872439D01*
X153688904Y-68061782D01*
X153623242Y-68263869D01*
X153623242Y-68263872D01*
X153590000Y-68473753D01*
X153590000Y-68686246D01*
X153623242Y-68896127D01*
X153623242Y-68896130D01*
X153688904Y-69098217D01*
X153785375Y-69287550D01*
X153824728Y-69341716D01*
X154457037Y-68709408D01*
X154474075Y-68772993D01*
X154539901Y-68887007D01*
X154632993Y-68980099D01*
X154747007Y-69045925D01*
X154810590Y-69062962D01*
X154178282Y-69695269D01*
X154178282Y-69695270D01*
X154232449Y-69734624D01*
X154421782Y-69831095D01*
X154623870Y-69896757D01*
X154833754Y-69930000D01*
X155046246Y-69930000D01*
X155256127Y-69896757D01*
X155256130Y-69896757D01*
X155458217Y-69831095D01*
X155647554Y-69734622D01*
X155701716Y-69695270D01*
X155701717Y-69695270D01*
X155069408Y-69062962D01*
X155132993Y-69045925D01*
X155247007Y-68980099D01*
X155340099Y-68887007D01*
X155405925Y-68772993D01*
X155422962Y-68709409D01*
X156055270Y-69341717D01*
X156055270Y-69341716D01*
X156094622Y-69287554D01*
X156191095Y-69098217D01*
X156256757Y-68896130D01*
X156256757Y-68896127D01*
X156290000Y-68686246D01*
X156290000Y-68473753D01*
X156256757Y-68263872D01*
X156256757Y-68263869D01*
X156191095Y-68061782D01*
X156094624Y-67872449D01*
X156055270Y-67818282D01*
X156055269Y-67818282D01*
X155422962Y-68450590D01*
X155405925Y-68387007D01*
X155340099Y-68272993D01*
X155247007Y-68179901D01*
X155132993Y-68114075D01*
X155069409Y-68097037D01*
X155701716Y-67464728D01*
X155647547Y-67425373D01*
X155647547Y-67425372D01*
X155638500Y-67420763D01*
X155587706Y-67372788D01*
X155570912Y-67304966D01*
X155593451Y-67238832D01*
X155638508Y-67199793D01*
X155647816Y-67195051D01*
X155727007Y-67137515D01*
X155819786Y-67070109D01*
X155819788Y-67070106D01*
X155819792Y-67070104D01*
X155970104Y-66919792D01*
X155970106Y-66919788D01*
X155970109Y-66919786D01*
X156095048Y-66747820D01*
X156095047Y-66747820D01*
X156095051Y-66747816D01*
X156191557Y-66558412D01*
X156257246Y-66356243D01*
X156290500Y-66146287D01*
X156290500Y-65933713D01*
X156257246Y-65723757D01*
X156191557Y-65521588D01*
X156095051Y-65332184D01*
X156095049Y-65332181D01*
X156095048Y-65332179D01*
X155970109Y-65160213D01*
X155819786Y-65009890D01*
X155647820Y-64884951D01*
X155647115Y-64884591D01*
X155639054Y-64880485D01*
X155588259Y-64832512D01*
X155571463Y-64764692D01*
X155593999Y-64698556D01*
X155639054Y-64659515D01*
X155647816Y-64655051D01*
X155773825Y-64563501D01*
X155819786Y-64530109D01*
X155819788Y-64530106D01*
X155819792Y-64530104D01*
X155970104Y-64379792D01*
X155970106Y-64379788D01*
X155970109Y-64379786D01*
X156095048Y-64207820D01*
X156095047Y-64207820D01*
X156095051Y-64207816D01*
X156191557Y-64018412D01*
X156257246Y-63816243D01*
X156290500Y-63606287D01*
X156290500Y-63393713D01*
X156257246Y-63183757D01*
X156191557Y-62981588D01*
X156095051Y-62792184D01*
X156095049Y-62792181D01*
X156095048Y-62792179D01*
X155970109Y-62620213D01*
X155819786Y-62469890D01*
X155647817Y-62344949D01*
X155639054Y-62340484D01*
X155631276Y-62333138D01*
X155621244Y-62329420D01*
X155606317Y-62309565D01*
X155588258Y-62292509D01*
X155585686Y-62282122D01*
X155579258Y-62273572D01*
X155577435Y-62248801D01*
X155571464Y-62224688D01*
X155574915Y-62214560D01*
X155574130Y-62203891D01*
X155585988Y-62182066D01*
X155594002Y-62158553D01*
X155603262Y-62150277D01*
X155607489Y-62142499D01*
X155631659Y-62124900D01*
X155635700Y-62121290D01*
X155637373Y-62120371D01*
X155647816Y-62115051D01*
X155650113Y-62113381D01*
X155656793Y-62109716D01*
X155657173Y-62109632D01*
X155660897Y-62107563D01*
X156726951Y-61573629D01*
X156782481Y-61560500D01*
X157879903Y-61560500D01*
X157946942Y-61580185D01*
X157967584Y-61596819D01*
X158623181Y-62252416D01*
X158656666Y-62313739D01*
X158659500Y-62340097D01*
X158659500Y-67491372D01*
X158652074Y-67533640D01*
X158501634Y-67948550D01*
X158501615Y-67948604D01*
X158500196Y-67952520D01*
X158490263Y-67976503D01*
X158487565Y-67990062D01*
X158485154Y-67997572D01*
X158485140Y-67997614D01*
X158483688Y-68002138D01*
X158483222Y-68003798D01*
X158465367Y-68100266D01*
X158464822Y-68104398D01*
X158459500Y-68131156D01*
X158459500Y-68288846D01*
X158490261Y-68443489D01*
X158490264Y-68443501D01*
X158550602Y-68589172D01*
X158550609Y-68589185D01*
X158638210Y-68720288D01*
X158638213Y-68720292D01*
X158749707Y-68831786D01*
X158749711Y-68831789D01*
X158880814Y-68919390D01*
X158880827Y-68919397D01*
X159009079Y-68972520D01*
X159026503Y-68979737D01*
X159178956Y-69010062D01*
X159181153Y-69010499D01*
X159181156Y-69010500D01*
X159181158Y-69010500D01*
X159338844Y-69010500D01*
X159338845Y-69010499D01*
X159493497Y-68979737D01*
X159639179Y-68919394D01*
X159770289Y-68831789D01*
X159800976Y-68801102D01*
X159808420Y-68797036D01*
X159813442Y-68790199D01*
X159838626Y-68780542D01*
X159862298Y-68767616D01*
X159870759Y-68768221D01*
X159878680Y-68765184D01*
X159905089Y-68770676D01*
X159931990Y-68772600D01*
X159938779Y-68777682D01*
X159947086Y-68779410D01*
X159966333Y-68798308D01*
X159987924Y-68814470D01*
X159990888Y-68822417D01*
X159996942Y-68828361D01*
X160002916Y-68854665D01*
X160012342Y-68879934D01*
X160010942Y-68889997D01*
X160012418Y-68896495D01*
X160005232Y-68931050D01*
X159991143Y-68969907D01*
X159989133Y-68975085D01*
X159980261Y-68996506D01*
X159978946Y-69003116D01*
X159975399Y-69016809D01*
X159973688Y-69022138D01*
X159973222Y-69023798D01*
X159955367Y-69120266D01*
X159954822Y-69124398D01*
X159949500Y-69151156D01*
X159949500Y-69308846D01*
X159980261Y-69463489D01*
X159980264Y-69463501D01*
X160040602Y-69609172D01*
X160040609Y-69609185D01*
X160128210Y-69740288D01*
X160128213Y-69740292D01*
X160239707Y-69851786D01*
X160239711Y-69851789D01*
X160370814Y-69939390D01*
X160370827Y-69939397D01*
X160516498Y-69999735D01*
X160516503Y-69999737D01*
X160671153Y-70030499D01*
X160671156Y-70030500D01*
X160671158Y-70030500D01*
X160828844Y-70030500D01*
X160828845Y-70030499D01*
X160983497Y-69999737D01*
X161129179Y-69939394D01*
X161260289Y-69851789D01*
X161371789Y-69740289D01*
X161459394Y-69609179D01*
X161519737Y-69463497D01*
X161550500Y-69308842D01*
X161550500Y-69151158D01*
X161550500Y-69151156D01*
X161550500Y-69151155D01*
X161550499Y-69151153D01*
X161536346Y-69080000D01*
X161519737Y-68996503D01*
X161510854Y-68975057D01*
X161508843Y-68969877D01*
X161482236Y-68896495D01*
X161357926Y-68553642D01*
X161350500Y-68511375D01*
X161350500Y-56470943D01*
X161350499Y-56470940D01*
X161342096Y-56439578D01*
X161331066Y-56398414D01*
X161309577Y-56318215D01*
X161280639Y-56268095D01*
X161230520Y-56181284D01*
X161118716Y-56069480D01*
X161118715Y-56069479D01*
X161114385Y-56065149D01*
X161114374Y-56065139D01*
X160567590Y-55518355D01*
X160567588Y-55518352D01*
X160448717Y-55399481D01*
X160448716Y-55399480D01*
X160361904Y-55349360D01*
X160361904Y-55349359D01*
X160361900Y-55349358D01*
X160311785Y-55320423D01*
X160159057Y-55279499D01*
X160000943Y-55279499D01*
X159993347Y-55279499D01*
X159993331Y-55279500D01*
X156782483Y-55279500D01*
X156726953Y-55266371D01*
X155660887Y-54732428D01*
X155656780Y-54730274D01*
X155650108Y-54726614D01*
X155647816Y-54724949D01*
X155637369Y-54719626D01*
X155635712Y-54718717D01*
X155612341Y-54695255D01*
X155588257Y-54672509D01*
X155587785Y-54670604D01*
X155586402Y-54669216D01*
X155579423Y-54636836D01*
X155571463Y-54604688D01*
X155572095Y-54602832D01*
X155571682Y-54600915D01*
X155583315Y-54569908D01*
X155594001Y-54538553D01*
X155595599Y-54537168D01*
X155596226Y-54535498D01*
X155605549Y-54528546D01*
X155639054Y-54499515D01*
X155647816Y-54495051D01*
X155669789Y-54479086D01*
X155819786Y-54370109D01*
X155819788Y-54370106D01*
X155819792Y-54370104D01*
X155970104Y-54219792D01*
X155970106Y-54219788D01*
X155970109Y-54219786D01*
X156095048Y-54047820D01*
X156095047Y-54047820D01*
X156095051Y-54047816D01*
X156191557Y-53858412D01*
X156257246Y-53656243D01*
X156290500Y-53446287D01*
X156290500Y-53233713D01*
X156257246Y-53023757D01*
X156191557Y-52821588D01*
X156095051Y-52632184D01*
X156095049Y-52632181D01*
X156095048Y-52632179D01*
X155970109Y-52460213D01*
X155856569Y-52346673D01*
X155823084Y-52285350D01*
X155828068Y-52215658D01*
X155869940Y-52159725D01*
X155900915Y-52142810D01*
X156032331Y-52093796D01*
X156147546Y-52007546D01*
X156233796Y-51892331D01*
X156284091Y-51757483D01*
X156290500Y-51697873D01*
X156290499Y-49902128D01*
X156284091Y-49842517D01*
X156233796Y-49707669D01*
X156233795Y-49707668D01*
X156233793Y-49707664D01*
X156147547Y-49592455D01*
X156147544Y-49592452D01*
X156032335Y-49506206D01*
X156032328Y-49506202D01*
X155897482Y-49455908D01*
X155897483Y-49455908D01*
X155837883Y-49449501D01*
X155837881Y-49449500D01*
X155837873Y-49449500D01*
X155837864Y-49449500D01*
X154042129Y-49449500D01*
X154042123Y-49449501D01*
X153982516Y-49455908D01*
X153847671Y-49506202D01*
X153847664Y-49506206D01*
X153732455Y-49592452D01*
X153732452Y-49592455D01*
X153646206Y-49707664D01*
X153646202Y-49707671D01*
X153595908Y-49842517D01*
X153589501Y-49902116D01*
X153589501Y-49902123D01*
X153589500Y-49902135D01*
X146550500Y-49902135D01*
X146550500Y-45709500D01*
X146570185Y-45642461D01*
X146622989Y-45596706D01*
X146674500Y-45585500D01*
X186065500Y-45585500D01*
X186132539Y-45605185D01*
G37*
G04 #@! TD.AperFunction*
G04 #@! TD*
G04 #@! TA.AperFunction,Conductor*
G04 #@! TO.N,/VDD_3V3_LCD*
G36*
X177630175Y-65211541D02*
G01*
X177636342Y-65218033D01*
X177636895Y-65219936D01*
X177800540Y-66037704D01*
X177800540Y-66042296D01*
X177636895Y-66860063D01*
X177631911Y-66867503D01*
X177623126Y-66869240D01*
X177621223Y-66868687D01*
X176123834Y-66292884D01*
X176117342Y-66286717D01*
X176116333Y-66281964D01*
X176116333Y-65798035D01*
X176119760Y-65789762D01*
X176123831Y-65787116D01*
X177621224Y-65211312D01*
X177630175Y-65211541D01*
G37*
G04 #@! TD.AperFunction*
G04 #@! TD*
G04 #@! TA.AperFunction,Conductor*
G04 #@! TO.N,/VDD_3V3_LCD*
G36*
X168437500Y-71629191D02*
G01*
X168440887Y-71636501D01*
X168483379Y-72151104D01*
X168480645Y-72159631D01*
X168474039Y-72163535D01*
X168192320Y-72220530D01*
X168187680Y-72220530D01*
X167905960Y-72163535D01*
X167898531Y-72158535D01*
X167896620Y-72151104D01*
X167939113Y-71636501D01*
X167943209Y-71628538D01*
X167950773Y-71625764D01*
X168429227Y-71625764D01*
X168437500Y-71629191D01*
G37*
G04 #@! TD.AperFunction*
G04 #@! TD*
G04 #@! TA.AperFunction,Conductor*
G04 #@! TO.N,/LCD_RS_N*
G36*
X176871282Y-81110389D02*
G01*
X177386525Y-81297204D01*
X177393134Y-81303244D01*
X177394236Y-81308202D01*
X177394236Y-81491797D01*
X177390809Y-81500070D01*
X177386524Y-81502796D01*
X176871290Y-81689608D01*
X176862344Y-81689207D01*
X176856303Y-81682597D01*
X176855837Y-81680939D01*
X176799469Y-81402318D01*
X176799469Y-81397680D01*
X176855835Y-81119067D01*
X176860834Y-81111641D01*
X176869622Y-81109922D01*
X176871282Y-81110389D01*
G37*
G04 #@! TD.AperFunction*
G04 #@! TD*
G04 #@! TA.AperFunction,Conductor*
G04 #@! TO.N,/TP_I2C_SCL*
G36*
X155421457Y-60257869D02*
G01*
X156617207Y-60856764D01*
X156623069Y-60863533D01*
X156623667Y-60867225D01*
X156623667Y-61052774D01*
X156620240Y-61061047D01*
X156617207Y-61063235D01*
X155421458Y-61662129D01*
X155412526Y-61662770D01*
X155406496Y-61658178D01*
X154943359Y-60966510D01*
X154941604Y-60957729D01*
X154943359Y-60953490D01*
X155406497Y-60261820D01*
X155413947Y-60256854D01*
X155421457Y-60257869D01*
G37*
G04 #@! TD.AperFunction*
G04 #@! TD*
G04 #@! TA.AperFunction,Conductor*
G04 #@! TO.N,/TP_RST_N*
G36*
X155421457Y-55177869D02*
G01*
X156617207Y-55776764D01*
X156623069Y-55783533D01*
X156623667Y-55787225D01*
X156623667Y-55972774D01*
X156620240Y-55981047D01*
X156617207Y-55983235D01*
X155421458Y-56582129D01*
X155412526Y-56582770D01*
X155406496Y-56578178D01*
X154943359Y-55886510D01*
X154941604Y-55877729D01*
X154943359Y-55873490D01*
X155406497Y-55181820D01*
X155413947Y-55176854D01*
X155421457Y-55177869D01*
G37*
G04 #@! TD.AperFunction*
G04 #@! TD*
G04 #@! TA.AperFunction,Conductor*
G04 #@! TO.N,/LCD_RS_N*
G36*
X178658235Y-49957266D02*
G01*
X179496041Y-50696507D01*
X179499977Y-50704549D01*
X179500000Y-50705279D01*
X179500000Y-50894720D01*
X179496573Y-50902993D01*
X179496041Y-50903493D01*
X178658236Y-51642732D01*
X178649765Y-51645636D01*
X178642228Y-51642237D01*
X177807286Y-50808276D01*
X177803855Y-50800007D01*
X177807276Y-50791733D01*
X178642230Y-49957760D01*
X178650502Y-49954340D01*
X178658235Y-49957266D01*
G37*
G04 #@! TD.AperFunction*
G04 #@! TD*
M02*
